<svg xmlns="http://www.w3.org/2000/svg" fill="none" viewBox="0 0 136 40" height="40" width="136">
<path fill="black" d="M1.64947 35.6015C1.50053 35.7074 1.41543 35.8557 1.41543 36.0251C1.41543 36.1945 1.50053 36.3216 1.64947 36.4487C1.7984 36.5545 1.98988 36.6181 2.24519 36.6181H3.98983C4.33025 36.6181 4.62811 36.6816 4.9047 36.8087C5.18129 36.9358 5.39405 37.1264 5.54298 37.3593C5.69191 37.5923 5.77702 37.8464 5.77702 38.1429C5.77702 38.4394 5.69191 38.7148 5.54298 38.9477C5.39405 39.1807 5.18129 39.3713 4.9047 39.4984C4.62811 39.6254 4.33025 39.689 3.98983 39.689H0.564388V38.7359H3.98983C4.24514 38.7359 4.43662 38.6724 4.58556 38.5665C4.73449 38.4606 4.81959 38.3124 4.81959 38.1429C4.81959 37.9735 4.73449 37.8253 4.58556 37.7194C4.43662 37.6135 4.24514 37.5499 3.98983 37.5499H2.24519C1.90478 37.5499 1.60691 37.4864 1.33033 37.3593C1.05374 37.2323 0.840978 37.0417 0.692045 36.8087C0.543113 36.5757 0.458008 36.3216 0.458008 36.0251C0.458008 35.7286 0.543113 35.4533 0.692045 35.2203C0.840978 34.9873 1.05374 34.7967 1.33033 34.6696C1.60691 34.5426 1.90478 34.479 2.24519 34.479H5.67064V35.4321H2.24519C2.01116 35.4321 1.7984 35.4956 1.64947 35.6015Z"></path>
<path fill="black" d="M21.6278 34.6908C21.9044 34.8391 22.1172 35.0509 22.2661 35.305C22.415 35.5592 22.5002 35.8557 22.5002 36.1945V37.9523C22.5002 38.27 22.415 38.5665 22.2661 38.8418C22.1172 39.096 21.9044 39.3078 21.6278 39.456C21.3512 39.6043 21.0534 39.689 20.7342 39.689H19.096C18.7556 39.689 18.4577 39.6043 18.2024 39.456C17.9258 39.3078 17.713 39.096 17.5641 38.8418C17.4152 38.5877 17.3301 38.2912 17.3301 37.9523V36.1945C17.3301 35.8768 17.4152 35.5803 17.5641 35.305C17.713 35.0509 17.9258 34.8391 18.2024 34.6908C18.479 34.5426 18.7768 34.4579 19.096 34.4579H20.7342C21.0747 34.4579 21.3725 34.5214 21.6278 34.6908ZM21.3087 35.6439C21.1598 35.4956 20.9683 35.4321 20.7342 35.4321H19.096C18.8619 35.4321 18.6492 35.4956 18.5215 35.6439C18.3726 35.7921 18.3088 35.9616 18.3088 36.1945V37.9523C18.3088 38.1853 18.3726 38.3759 18.5215 38.503C18.6705 38.6512 18.8619 38.7148 19.096 38.7148H20.7342C20.9683 38.7148 21.181 38.6512 21.3087 38.503C21.4576 38.3547 21.5214 38.1853 21.5214 37.9523V36.1945C21.5214 35.9616 21.4576 35.771 21.3087 35.6439Z"></path>
<path fill="black" d="M34.9036 39.456C34.627 39.3078 34.4142 39.096 34.2653 38.8418C34.1163 38.5877 34.0312 38.2912 34.0312 37.9523V34.479H34.9887V37.9523C34.9887 38.1853 35.0525 38.3759 35.2014 38.503C35.3504 38.6512 35.5418 38.7148 35.7759 38.7148H39.18V39.6678H35.7759C35.4355 39.6678 35.1376 39.5831 34.8823 39.4348L34.9036 39.456Z"></path>
<path fill="black" d="M55.6909 38.8418C55.542 39.096 55.3292 39.3078 55.0526 39.456C54.7761 39.6043 54.4782 39.689 54.159 39.689H52.5208C52.1804 39.689 51.8825 39.6043 51.6272 39.456C51.3506 39.3078 51.1378 39.096 50.9889 38.8418C50.84 38.5877 50.7549 38.2912 50.7549 37.9523V34.479H51.7123V37.9523C51.7123 38.1853 51.7761 38.3759 51.9251 38.503C52.074 38.6512 52.2655 38.7148 52.4995 38.7148H54.1378C54.3718 38.7148 54.5846 38.6512 54.7122 38.503C54.8612 38.3547 54.925 38.1853 54.925 37.9523V34.479H55.8824V37.9523C55.8824 38.27 55.7973 38.5665 55.6484 38.8418H55.6909Z"></path>
<path fill="black" d="M70.5413 35.4321V39.6678H69.5839V35.4321H67.4775V34.479H72.6263V35.4321H70.52H70.5413Z"></path>
<path fill="black" d="M84.2002 39.6678V34.479H85.1576V39.6678H84.2002Z"></path>
<path fill="black" d="M101.008 34.6908C101.285 34.8391 101.498 35.0509 101.647 35.305C101.796 35.5592 101.881 35.8557 101.881 36.1945V37.9523C101.881 38.27 101.796 38.5665 101.647 38.8418C101.498 39.096 101.285 39.3078 101.008 39.456C100.732 39.6043 100.434 39.689 100.115 39.689H98.4766C98.1362 39.689 97.8383 39.6043 97.583 39.456C97.3064 39.3078 97.0937 39.096 96.9447 38.8418C96.7958 38.5877 96.7107 38.2912 96.7107 37.9523V36.1945C96.7107 35.8768 96.7958 35.5803 96.9447 35.305C97.0937 35.0509 97.3064 34.8391 97.583 34.6908C97.8596 34.5426 98.1575 34.4579 98.4766 34.4579H100.115C100.455 34.4579 100.753 34.5214 101.008 34.6908ZM100.689 35.6439C100.54 35.4956 100.349 35.4321 100.115 35.4321H98.4766C98.2426 35.4321 98.0298 35.4956 97.9021 35.6439C97.7532 35.7921 97.6894 35.9616 97.6894 36.1945V37.9523C97.6894 38.1853 97.7532 38.3759 97.9021 38.503C98.0511 38.6512 98.2426 38.7148 98.4766 38.7148H100.115C100.349 38.7148 100.562 38.6512 100.689 38.503C100.838 38.3547 100.902 38.1853 100.902 37.9523V36.1945C100.902 35.9616 100.838 35.771 100.689 35.6439Z"></path>
<path fill="black" d="M113.71 34.5638H114.455L117.391 38.4394V34.5638H118.135V39.6678H117.391L114.455 35.7921V39.6678H113.71V34.5638Z"></path>
<path fill="black" d="M131.199 35.6015C131.05 35.7074 130.965 35.8557 130.965 36.0251C130.965 36.1945 131.05 36.3216 131.199 36.4487C131.348 36.5545 131.539 36.6181 131.795 36.6181H133.539C133.88 36.6181 134.178 36.6816 134.454 36.8087C134.731 36.9358 134.944 37.1264 135.093 37.3593C135.241 37.5923 135.327 37.8464 135.327 38.1429C135.327 38.4394 135.241 38.7148 135.093 38.9477C134.944 39.1807 134.731 39.3713 134.454 39.4984C134.178 39.6254 133.88 39.689 133.539 39.689H130.114V38.7359H133.539C133.795 38.7359 133.986 38.6724 134.135 38.5665C134.284 38.4606 134.369 38.3124 134.369 38.1429C134.369 37.9735 134.305 37.8253 134.135 37.7194C133.965 37.6135 133.795 37.5499 133.539 37.5499H131.795C131.454 37.5499 131.156 37.4864 130.88 37.3593C130.603 37.2323 130.391 37.0417 130.242 36.8087C130.093 36.5757 130.008 36.3216 130.008 36.0251C130.008 35.7286 130.093 35.4533 130.242 35.2203C130.391 34.9873 130.603 34.7967 130.88 34.6696C131.156 34.5426 131.454 34.479 131.795 34.479H135.22V35.4321H131.795C131.561 35.4321 131.348 35.4956 131.199 35.6015Z"></path>
<path fill="black" d="M34.3292 5.57022C35.01 4.91368 35.9249 4.596 37.0738 4.596H54.967L51.4351 0.10614H37.0525C36.9674 0.10614 36.8611 0.10614 36.7547 0.10614C35.2866 0.148497 33.9675 0.487353 32.7761 1.14389C31.5208 1.84278 30.5421 2.79581 29.8187 4.02417C29.7123 4.21478 29.6059 4.4054 29.5208 4.57482C29.0102 5.65493 28.7549 6.8621 28.7549 8.154V16.3713C28.7549 17.6844 29.0102 18.8704 29.5208 19.9505C29.6059 20.1411 29.7123 20.3317 29.8187 20.5011C30.5208 21.7295 31.5208 22.7037 32.7761 23.4026C34.0313 24.1015 35.4568 24.4403 37.0525 24.4403H52.8181V19.9505H37.0525C35.9036 19.9505 35.01 19.6328 34.3079 18.9763C33.6271 18.3409 33.2867 17.4514 33.2867 16.3713V8.154C33.2867 7.05271 33.6271 6.20557 34.3079 5.54903L34.3292 5.57022Z"></path>
<path fill="black" d="M79.4346 4.04536C78.7113 2.817 77.7326 1.86396 76.4773 1.16507C75.222 0.466174 73.8178 0.127317 72.2434 0.127317H55.8821L59.4139 4.61718H72.2434C73.3923 4.61718 74.2859 4.93485 74.988 5.59139C75.6688 6.24793 76.0092 7.11625 76.0092 8.19635V13.0674H56.3502V24.4827H60.8607V17.5785H76.0092V24.4827H80.5197V8.19635C80.5197 6.88328 80.2644 5.69729 79.7538 4.61718C79.6687 4.42657 79.5623 4.23596 79.4559 4.06653L79.4346 4.04536Z"></path>
<path fill="black" d="M131.752 19.9717L135.305 24.4615H111.646V0.10614H135.305L131.752 4.596H116.157V10.0389H130.242V14.5288H116.157V19.9717H131.752Z"></path>
<path fill="black" d="M95.5615 19.9717H92.2424C91.0935 19.9717 90.1999 19.654 89.5191 18.9974C88.8382 18.3621 88.4978 17.4726 88.4978 16.3925V0.10614H83.9873V16.3925C83.9873 17.9173 84.3277 19.3151 85.0511 20.5435C85.7532 21.7718 86.7532 22.746 88.0085 23.4449C89.2638 24.1438 90.668 24.4827 92.2424 24.4827H107.689L104.136 19.9928H95.5402L95.5615 19.9717Z"></path>
<path fill="black" d="M21.1809 10.9708C19.9043 10.3566 18.4788 10.0389 16.9257 10.0389H8.77694C7.62803 10.0389 6.71316 9.78476 6.01105 9.27647C5.30894 8.76819 4.96852 8.11165 4.96852 7.32804C4.96852 6.54443 5.30894 5.8879 6.01105 5.35843C6.71316 4.85015 7.62803 4.57482 8.77694 4.57482H24.8191L21.3085 0.0849609H8.79821C7.22378 0.0849609 5.81956 0.38146 4.543 1.01682C3.26644 1.65218 2.26647 2.49931 1.54309 3.6006C0.819702 4.70189 0.458008 5.93025 0.458008 7.32804C0.458008 8.72583 0.819702 9.933 1.54309 11.0131C2.26647 12.1144 3.26644 12.9615 4.543 13.5757C5.81956 14.1899 7.22378 14.5076 8.79821 14.5076H16.9469C18.0958 14.5076 19.0107 14.7617 19.7128 15.27C20.4149 15.7783 20.7553 16.4348 20.7553 17.2184C20.7553 18.0021 20.4149 18.6586 19.7128 19.188C19.0107 19.6963 18.0958 19.9717 16.9257 19.9717H0.904806V24.4615H16.9469C18.5001 24.4615 19.9256 24.1438 21.2021 23.5297C22.4787 22.8943 23.4787 22.0472 24.2021 20.9459C24.9254 19.8658 25.3084 18.6162 25.3084 17.2184C25.3084 15.8207 24.9467 14.6135 24.2021 13.5334C23.4574 12.4321 22.4574 11.5849 21.2021 10.9708H21.1809Z"></path>
</svg>
