<svg width="200" height="200" viewBox="0 0 200 200" fill="none" xmlns="http://www.w3.org/2000/svg">
<path d="M105.219 5.67188C105.179 5.29972 105.012 5.00994 104.716 4.80256C104.423 4.59517 104.043 4.49148 103.574 4.49148C103.244 4.49148 102.962 4.54119 102.726 4.64062C102.49 4.74006 102.31 4.875 102.185 5.04545C102.06 5.21591 101.996 5.41051 101.993 5.62926C101.993 5.81108 102.034 5.96875 102.117 6.10227C102.202 6.2358 102.317 6.34943 102.462 6.44318C102.607 6.53409 102.767 6.6108 102.943 6.6733C103.119 6.7358 103.297 6.78835 103.476 6.83097L104.294 7.03551C104.624 7.11222 104.941 7.21591 105.244 7.34659C105.551 7.47727 105.825 7.64205 106.067 7.84091C106.311 8.03977 106.504 8.27983 106.646 8.56108C106.789 8.84233 106.86 9.17187 106.86 9.54972C106.86 10.0611 106.729 10.5114 106.468 10.9006C106.206 11.2869 105.828 11.5895 105.334 11.8082C104.843 12.0241 104.247 12.1321 103.548 12.1321C102.869 12.1321 102.28 12.027 101.78 11.8168C101.283 11.6065 100.894 11.2997 100.612 10.8963C100.334 10.4929 100.183 10.0014 100.161 9.42188H101.716C101.739 9.72585 101.833 9.97869 101.997 10.1804C102.162 10.3821 102.377 10.5327 102.641 10.6321C102.908 10.7315 103.206 10.7812 103.536 10.7812C103.879 10.7812 104.181 10.7301 104.439 10.6278C104.7 10.5227 104.905 10.3778 105.053 10.1932C105.2 10.0057 105.276 9.78693 105.279 9.53693C105.276 9.30966 105.209 9.12216 105.078 8.97443C104.948 8.82386 104.764 8.69886 104.529 8.59943C104.296 8.49716 104.023 8.40625 103.71 8.3267L102.718 8.07102C101.999 7.88636 101.431 7.60653 101.013 7.23153C100.598 6.85369 100.391 6.35227 100.391 5.72727C100.391 5.21307 100.53 4.76278 100.808 4.37642C101.09 3.99006 101.472 3.69034 101.955 3.47727C102.438 3.26136 102.985 3.15341 103.595 3.15341C104.215 3.15341 104.757 3.26136 105.223 3.47727C105.692 3.69034 106.06 3.98722 106.327 4.3679C106.594 4.74574 106.732 5.1804 106.74 5.67188H105.219Z" fill="#C1FF72"/>
<path d="M115.63 9.50208L115.058 13.2944L113.533 13.0647L114.835 4.43514L116.327 4.65972L115.835 7.91688L115.911 7.9283C116.118 7.58595 116.396 7.33333 116.745 7.17044C117.098 7.00517 117.521 6.95974 118.015 7.03418C118.465 7.10185 118.843 7.25495 119.149 7.49349C119.454 7.73203 119.671 8.04624 119.799 8.4361C119.93 8.82639 119.956 9.28278 119.877 9.80527L119.255 13.9262L117.73 13.6966L118.316 9.81159C118.382 9.37617 118.32 9.02076 118.132 8.74534C117.947 8.46754 117.654 8.2984 117.252 8.23792C116.982 8.19731 116.732 8.21993 116.501 8.30577C116.272 8.38923 116.081 8.53142 115.928 8.73234C115.777 8.93369 115.678 9.19027 115.63 9.50208Z" fill="#C1FF72"/>
<path d="M129.043 17.0342C128.432 16.846 127.944 16.5485 127.579 16.1418C127.214 15.735 126.983 15.252 126.885 14.6927C126.79 14.1343 126.842 13.532 127.042 12.886C127.241 12.24 127.538 11.7117 127.933 11.3011C128.33 10.8913 128.794 10.6211 129.325 10.4904C129.856 10.3597 130.427 10.3884 131.037 10.5766C131.648 10.7648 132.136 11.0623 132.501 11.469C132.866 11.8758 133.096 12.3597 133.19 12.9209C133.287 13.4829 133.236 14.0869 133.036 14.733C132.837 15.379 132.539 15.9055 132.143 16.3126C131.749 16.7205 131.287 16.9898 130.756 17.1205C130.225 17.2512 129.654 17.2224 129.043 17.0342ZM129.416 15.856C129.747 15.958 130.052 15.9524 130.331 15.8391C130.611 15.7231 130.853 15.5271 131.057 15.2512C131.264 14.976 131.426 14.6484 131.543 14.2684C131.661 13.8857 131.712 13.5224 131.697 13.1787C131.685 12.8331 131.596 12.5337 131.43 12.2805C131.264 12.0273 131.016 11.8497 130.685 11.7477C130.345 11.6431 130.034 11.6484 129.752 11.7636C129.473 11.8796 129.229 12.0765 129.021 12.3543C128.817 12.6303 128.656 12.9597 128.538 13.3424C128.42 13.7224 128.368 14.0839 128.381 14.4268C128.397 14.7705 128.488 15.069 128.653 15.3222C128.822 15.5735 129.077 15.7514 129.416 15.856Z" fill="#C1FF72"/>
<path d="M137.515 23.1631L141.424 15.0562L142.791 15.7138L142.321 16.6888L142.401 16.7276C142.542 16.6187 142.717 16.5151 142.925 16.4167C143.134 16.3157 143.378 16.2612 143.656 16.2532C143.936 16.2426 144.249 16.3205 144.594 16.4867C145.05 16.7059 145.405 17.02 145.658 17.429C145.916 17.8366 146.043 18.3186 146.04 18.875C146.04 19.4301 145.883 20.0352 145.567 20.6903C145.255 21.3377 144.883 21.8368 144.452 22.1875C144.021 22.5382 143.566 22.7446 143.085 22.8064C142.604 22.8683 142.132 22.7878 141.668 22.5649C141.33 22.4024 141.077 22.2112 140.909 21.9915C140.74 21.7718 140.627 21.5499 140.567 21.326C140.512 21.1008 140.482 20.8986 140.476 20.7196L140.419 20.6919L138.905 23.8318L137.515 23.1631ZM141.365 18.6599C141.182 19.0412 141.074 19.401 141.044 19.7394C141.016 20.0789 141.065 20.3786 141.192 20.6383C141.323 20.8967 141.536 21.0967 141.83 21.2383C142.137 21.3861 142.434 21.428 142.72 21.364C143.008 21.2974 143.273 21.146 143.517 20.9099C143.763 20.6724 143.976 20.3695 144.153 20.001C144.33 19.635 144.434 19.2848 144.466 18.9503C144.498 18.6157 144.449 18.318 144.32 18.057C144.19 17.796 143.97 17.5911 143.66 17.442C143.363 17.2992 143.074 17.2559 142.791 17.3123C142.508 17.3687 142.245 17.5117 142.002 17.7415C141.762 17.9725 141.549 18.2786 141.365 18.6599Z" fill="#C1FF72"/>
<path d="M149.944 27.5988L153.634 22.1927L154.909 23.061L151.219 28.4671L149.944 27.5988ZM154.799 21.862C154.597 21.7244 154.469 21.5392 154.415 21.3063C154.362 21.0711 154.4 20.8585 154.53 20.6684C154.662 20.476 154.846 20.3625 155.083 20.3279C155.321 20.2909 155.541 20.3412 155.743 20.4788C155.947 20.6179 156.075 20.8043 156.125 21.0379C156.179 21.2708 156.141 21.4834 156.01 21.6758C155.88 21.8659 155.696 21.9794 155.457 22.0163C155.223 22.0525 155.003 22.0011 154.799 21.862Z" fill="#C1FF72"/>
<path d="M167.076 33.3209L166.264 34.1951L163.426 31.5649L164.238 30.6907L167.076 33.3209ZM160.493 36.1439L165.368 30.8956C165.668 30.573 165.984 30.3663 166.316 30.2755C166.651 30.1866 166.981 30.1943 167.307 30.2987C167.633 30.403 167.934 30.5836 168.211 30.8404C168.407 31.022 168.566 31.1988 168.69 31.371C168.813 31.5432 168.899 31.6756 168.949 31.7681L167.912 32.4338C167.877 32.3748 167.83 32.3042 167.771 32.2221C167.714 32.1378 167.64 32.0542 167.55 31.9711C167.34 31.7761 167.144 31.689 166.961 31.7099C166.783 31.7306 166.607 31.8347 166.433 32.022L161.627 37.1953L160.493 36.1439Z" fill="#C1FF72"/>
<path d="M167.766 47.8387C167.635 47.6744 167.527 47.5117 167.442 47.3506C167.356 47.1934 167.298 47.0605 167.265 46.9518L168.429 46.4829C168.518 46.699 168.618 46.8749 168.73 47.0108C168.842 47.1467 168.982 47.2332 169.15 47.2703C169.317 47.3113 169.527 47.2915 169.779 47.2108L170.138 47.0937L173.883 41.0757L174.904 42.3545L171.979 46.6132L172.021 46.6664L176.832 44.7688L177.855 46.0509L170.481 48.5748C170.133 48.6953 169.8 48.7537 169.481 48.7501C169.159 48.7482 168.856 48.6737 168.572 48.5264C168.286 48.3832 168.018 48.1539 167.766 47.8387Z" fill="#C1FF72"/>
<path d="M182.862 70.6635C182.674 70.1849 182.628 69.7084 182.726 69.2338C182.823 68.7593 183.063 68.3205 183.445 67.9175C183.827 67.5146 184.352 67.1819 185.021 66.9196C185.698 66.6541 186.313 66.5412 186.866 66.5808C187.423 66.6221 187.895 66.7864 188.282 67.0738C188.673 67.3602 188.96 67.7374 189.144 68.2055C189.284 68.5624 189.338 68.8798 189.307 69.1575C189.279 69.4342 189.206 69.6731 189.09 69.8743C188.976 70.0745 188.86 70.2407 188.741 70.3728L188.764 70.4322L191.803 69.2409L192.369 70.6806L184.244 73.8658L183.689 72.4539L184.649 72.0775L184.615 71.9902C184.437 71.9743 184.238 71.9289 184.016 71.8541C183.797 71.7782 183.584 71.6481 183.378 71.4637C183.171 71.2792 182.999 71.0125 182.862 70.6635ZM184.197 70.6022C184.317 70.9062 184.501 71.1332 184.749 71.2831C185 71.432 185.295 71.5038 185.635 71.4988C185.975 71.4937 186.342 71.4139 186.736 71.2594C187.13 71.1049 187.451 70.9151 187.698 70.69C187.946 70.4676 188.109 70.2176 188.186 69.9402C188.264 69.6654 188.243 69.3734 188.121 69.064C187.995 68.7441 187.807 68.5097 187.556 68.3608C187.306 68.212 187.012 68.1409 186.676 68.1476C186.34 68.1542 185.983 68.2317 185.604 68.38C185.224 68.5293 184.905 68.7167 184.649 68.9423C184.396 69.1695 184.226 69.4239 184.138 69.7054C184.054 69.9886 184.074 70.2875 184.197 70.6022Z" fill="#C1FF72"/>
<path d="M186.405 83.8085C186.259 83.1687 186.266 82.5859 186.425 82.06C186.588 81.5362 186.887 81.0938 187.32 80.7328C187.756 80.3711 188.308 80.1142 188.975 79.962C189.632 79.8124 190.236 79.8057 190.789 79.9419C191.345 80.0802 191.813 80.3436 192.194 80.7319C192.576 81.1195 192.838 81.618 192.977 82.2273C193.067 82.6205 193.088 83.0062 193.04 83.3842C192.996 83.7643 192.873 84.1187 192.671 84.4474C192.47 84.7788 192.183 85.0684 191.812 85.3163C191.443 85.5636 190.979 85.7511 190.419 85.8786L189.958 85.9837L188.763 80.7535L189.776 80.5224L190.642 84.3111C190.93 84.2427 191.172 84.1219 191.368 83.9489C191.567 83.7753 191.707 83.5642 191.787 83.3158C191.868 83.0701 191.876 82.8032 191.81 82.5152C191.74 82.2077 191.603 81.9548 191.4 81.7562C191.2 81.557 190.965 81.4198 190.694 81.3446C190.427 81.2715 190.15 81.2661 189.865 81.3284L188.98 81.5301C188.608 81.6148 188.305 81.7552 188.07 81.9516C187.838 82.1472 187.679 82.3831 187.594 82.659C187.511 82.9343 187.507 83.2353 187.582 83.5621C187.632 83.7809 187.707 83.972 187.809 84.1353C187.913 84.2981 188.041 84.4306 188.193 84.533C188.344 84.6354 188.518 84.6993 188.713 84.7247L188.876 86.1649C188.484 86.1609 188.122 86.0658 187.788 85.8797C187.457 85.6957 187.172 85.4286 186.932 85.0784C186.694 84.7275 186.519 84.3042 186.405 83.8085Z" fill="#C1FF72"/>
<path d="M194.73 99.3166L188.029 97.4807L187.901 95.7809L194.254 92.9679L194.377 94.6082L189.641 96.4712L189.646 96.5392L194.607 97.6805L194.73 99.3166Z" fill="#C1FF72"/>
<path d="M187.339 110.01C187.388 109.355 187.566 108.8 187.874 108.345C188.184 107.892 188.6 107.557 189.12 107.34C189.644 107.122 190.247 107.039 190.93 107.09C191.601 107.141 192.181 107.312 192.669 107.605C193.159 107.901 193.529 108.291 193.778 108.774C194.029 109.257 194.131 109.81 194.085 110.433C194.054 110.836 193.961 111.21 193.804 111.558C193.649 111.908 193.427 112.21 193.137 112.465C192.847 112.722 192.488 112.915 192.06 113.042C191.634 113.17 191.135 113.212 190.563 113.17L190.092 113.134L190.493 107.784L191.53 107.862L191.239 111.737C191.534 111.757 191.801 111.712 192.04 111.605C192.281 111.498 192.477 111.337 192.627 111.123C192.777 110.912 192.863 110.66 192.885 110.365C192.908 110.05 192.852 109.768 192.717 109.519C192.585 109.27 192.401 109.069 192.164 108.918C191.93 108.769 191.668 108.683 191.376 108.658L190.471 108.59C190.091 108.562 189.76 108.607 189.478 108.725C189.198 108.844 188.977 109.023 188.814 109.261C188.653 109.5 188.561 109.786 188.536 110.121C188.519 110.344 188.535 110.549 188.584 110.735C188.635 110.921 188.718 111.086 188.833 111.228C188.948 111.371 189.094 111.483 189.273 111.565L189.004 112.989C188.631 112.87 188.313 112.672 188.049 112.396C187.787 112.123 187.593 111.784 187.467 111.378C187.344 110.973 187.301 110.517 187.339 110.01Z" fill="#C1FF72"/>
<path d="M193.803 123.568L185.294 121.628L185.638 120.125L194.147 122.064L193.803 123.568Z" fill="#C1FF72"/>
<path d="M180.512 135.28C180.746 134.686 181.08 134.221 181.513 133.888C181.946 133.554 182.446 133.359 183.011 133.303C183.575 133.25 184.172 133.346 184.802 133.593C185.431 133.84 185.936 134.175 186.316 134.599C186.695 135.025 186.929 135.507 187.02 136.046C187.11 136.585 187.039 137.152 186.805 137.747C186.571 138.342 186.237 138.806 185.804 139.14C185.371 139.474 184.871 139.667 184.304 139.719C183.736 139.774 183.137 139.678 182.508 139.431C181.878 139.185 181.375 138.849 180.999 138.423C180.622 138.001 180.388 137.52 180.297 136.981C180.207 136.442 180.279 135.875 180.512 135.28ZM181.66 135.739C181.533 136.062 181.516 136.366 181.608 136.653C181.702 136.94 181.88 137.196 182.14 137.42C182.399 137.646 182.713 137.832 183.084 137.977C183.456 138.124 183.815 138.202 184.159 138.211C184.505 138.225 184.81 138.158 185.075 138.012C185.34 137.866 185.536 137.631 185.663 137.309C185.793 136.978 185.811 136.668 185.717 136.378C185.623 136.091 185.445 135.833 185.183 135.606C184.923 135.382 184.607 135.197 184.234 135.05C183.863 134.905 183.507 134.826 183.164 134.814C182.819 134.804 182.515 134.872 182.25 135.019C181.986 135.169 181.79 135.409 181.66 135.739Z" fill="#C1FF72"/>
<path d="M173.759 143.258L181.556 147.754L180.797 149.068L179.859 148.527L179.814 148.605C179.912 148.753 180.003 148.935 180.085 149.149C180.17 149.366 180.206 149.613 180.193 149.891C180.183 150.17 180.082 150.475 179.89 150.808C179.637 151.245 179.296 151.576 178.869 151.798C178.443 152.025 177.952 152.115 177.397 152.071C176.843 152.03 176.251 151.828 175.621 151.465C174.999 151.106 174.529 150.699 174.211 150.243C173.893 149.788 173.722 149.318 173.696 148.835C173.671 148.351 173.786 147.886 174.044 147.441C174.231 147.117 174.441 146.879 174.673 146.727C174.905 146.575 175.135 146.478 175.363 146.436C175.592 146.398 175.796 146.382 175.975 146.391L176.007 146.335L172.987 144.594L173.759 143.258ZM177.964 147.429C177.597 147.218 177.246 147.084 176.911 147.029C176.574 146.975 176.271 147.002 176.002 147.11C175.735 147.221 175.519 147.418 175.356 147.701C175.185 147.996 175.121 148.289 175.163 148.579C175.208 148.87 175.339 149.146 175.556 149.406C175.775 149.669 176.061 149.903 176.416 150.108C176.767 150.311 177.109 150.44 177.441 150.497C177.772 150.554 178.073 150.527 178.343 150.417C178.613 150.308 178.834 150.104 179.006 149.806C179.171 149.521 179.236 149.235 179.201 148.95C179.166 148.664 179.043 148.391 178.832 148.132C178.62 147.875 178.33 147.641 177.964 147.429Z" fill="#C1FF72"/>
<path d="M168.397 155.305L173.517 159.383L172.597 160.535L171.727 159.842L171.679 159.902C171.887 160.243 171.975 160.601 171.943 160.979C171.913 161.358 171.761 161.719 171.488 162.06C171.212 162.407 170.894 162.631 170.536 162.735C170.178 162.842 169.815 162.829 169.448 162.696L169.406 162.75C169.6 163.089 169.674 163.461 169.628 163.864C169.583 164.271 169.413 164.66 169.117 165.031C168.741 165.502 168.285 165.767 167.75 165.827C167.215 165.888 166.662 165.69 166.091 165.236L162.654 162.498L163.619 161.289L166.869 163.878C167.187 164.131 167.486 164.232 167.768 164.18C168.051 164.13 168.291 163.983 168.486 163.738C168.718 163.447 168.808 163.147 168.757 162.838C168.707 162.532 168.537 162.265 168.248 162.035L165.055 159.491L165.999 158.309L169.299 160.937C169.563 161.148 169.838 161.236 170.123 161.202C170.407 161.17 170.651 161.026 170.855 160.771C170.993 160.598 171.074 160.405 171.099 160.192C171.126 159.981 171.093 159.769 171 159.558C170.91 159.348 170.759 159.159 170.548 158.99L167.435 156.511L168.397 155.305Z" fill="#C1FF72"/>
<path d="M157.166 166.766C157.647 166.32 158.155 166.034 158.691 165.91C159.227 165.789 159.759 165.826 160.289 166.021C160.821 166.217 161.32 166.567 161.786 167.068C162.244 167.562 162.552 168.081 162.711 168.628C162.869 169.178 162.875 169.715 162.729 170.238C162.585 170.763 162.283 171.238 161.825 171.662C161.529 171.937 161.205 172.148 160.854 172.295C160.502 172.447 160.133 172.517 159.748 172.507C159.36 172.498 158.965 172.395 158.564 172.197C158.165 172.002 157.771 171.694 157.38 171.273L157.058 170.927L160.993 167.28L161.701 168.041L158.85 170.683C159.054 170.898 159.279 171.047 159.528 171.13C159.778 171.216 160.031 171.232 160.286 171.177C160.54 171.124 160.775 170.997 160.991 170.796C161.223 170.582 161.374 170.338 161.444 170.063C161.517 169.79 161.518 169.518 161.448 169.246C161.377 168.979 161.243 168.737 161.046 168.52L160.429 167.855C160.169 167.576 159.896 167.384 159.608 167.279C159.323 167.176 159.039 167.156 158.757 167.22C158.477 167.286 158.214 167.433 157.968 167.661C157.803 167.813 157.676 167.974 157.585 168.144C157.496 168.315 157.445 168.492 157.432 168.674C157.419 168.857 157.451 169.039 157.526 169.22L156.36 170.081C156.167 169.74 156.068 169.379 156.062 168.997C156.056 168.619 156.145 168.238 156.328 167.856C156.514 167.475 156.793 167.111 157.166 166.766Z" fill="#C1FF72"/>
<path d="M149.917 177.06L147.754 173.893L149.029 173.024L152.719 178.43L151.501 179.26L150.874 178.342L150.81 178.385C150.893 178.772 150.858 179.148 150.708 179.512C150.555 179.877 150.276 180.197 149.872 180.472C149.499 180.727 149.119 180.868 148.733 180.898C148.345 180.928 147.971 180.844 147.612 180.646C147.25 180.448 146.923 180.133 146.631 179.7L144.281 176.258L145.556 175.389L147.771 178.634C148.018 178.996 148.305 179.215 148.632 179.291C148.957 179.369 149.284 179.296 149.613 179.072C149.836 178.92 150 178.735 150.107 178.518C150.213 178.306 150.252 178.074 150.226 177.824C150.197 177.575 150.094 177.321 149.917 177.06Z" fill="#C1FF72"/>
<path d="M137.48 186.84L136.962 185.765L140.353 184.134L140.871 185.209L137.48 186.84ZM140.715 187.024L139.325 187.693L136.656 182.158C136.566 181.971 136.469 181.841 136.364 181.769C136.259 181.7 136.15 181.67 136.038 181.68C135.926 181.69 135.812 181.722 135.697 181.778C135.61 181.82 135.534 181.864 135.468 181.911C135.4 181.96 135.349 181.998 135.316 182.027L134.558 181.054C134.62 180.992 134.712 180.913 134.836 180.816C134.957 180.72 135.114 180.622 135.309 180.522C135.652 180.344 135.991 180.246 136.326 180.227C136.662 180.21 136.971 180.285 137.253 180.452C137.533 180.62 137.76 180.889 137.935 181.259L140.715 187.024Z" fill="#C1FF72"/>
<path d="M99.152 190.433C99.1662 190.95 99.098 191.381 98.9474 191.724C98.794 192.068 98.581 192.325 98.3082 192.496C98.0327 192.669 97.7173 192.756 97.3622 192.756C97.0866 192.756 96.8281 192.697 96.5866 192.581C96.3452 192.467 96.0682 192.273 95.7557 191.997C95.5767 191.844 95.429 191.729 95.3125 191.652C95.196 191.575 95.0625 191.537 94.9119 191.537C94.696 191.537 94.5213 191.619 94.3878 191.784C94.2514 191.952 94.1875 192.205 94.196 192.543H92.9602C92.946 192.028 93.017 191.599 93.1733 191.256C93.3267 190.912 93.5412 190.653 93.8168 190.48C94.0923 190.31 94.4034 190.224 94.75 190.224C95.0341 190.224 95.2983 190.284 95.5426 190.403C95.7869 190.523 96.0611 190.714 96.3651 190.979C96.5526 191.143 96.7031 191.261 96.8168 191.332C96.9276 191.403 97.0568 191.439 97.2045 191.439C97.4119 191.439 97.5852 191.361 97.7244 191.205C97.8608 191.051 97.9261 190.794 97.9205 190.433H99.152Z" fill="#C1FF72"/>
<path d="M54.0443 182.662C53.9185 183.015 53.9437 183.349 54.1199 183.663C54.2935 183.977 54.5915 184.236 55.0139 184.439C55.3109 184.582 55.5872 184.659 55.8429 184.672C56.0986 184.685 56.3198 184.641 56.5064 184.542C56.6931 184.443 56.8352 184.295 56.9328 184.099C57.0117 183.935 57.0431 183.775 57.0268 183.62C57.008 183.462 56.9537 183.31 56.8638 183.163C56.7728 183.018 56.6614 182.879 56.5298 182.747C56.3983 182.614 56.2611 182.49 56.1183 182.374L55.4698 181.835C55.2061 181.623 54.9657 181.392 54.7485 181.143C54.5288 180.892 54.3533 180.625 54.2221 180.341C54.0883 180.056 54.0184 179.756 54.0126 179.441C54.0067 179.126 54.0858 178.799 54.2499 178.458C54.472 177.998 54.7853 177.649 55.1899 177.411C55.5932 177.177 56.0651 177.068 56.6056 177.085C57.1422 177.104 57.7255 177.264 58.3553 177.567C58.9671 177.862 59.4527 178.212 59.812 178.618C60.1687 179.023 60.3862 179.468 60.4645 179.953C60.5401 180.437 60.4624 180.945 60.2312 181.477L58.8295 180.803C58.941 180.519 58.9664 180.251 58.9055 179.998C58.8446 179.745 58.7167 179.516 58.5218 179.312C58.3243 179.107 58.0771 178.933 57.7801 178.79C57.4703 178.641 57.1768 178.556 56.8994 178.536C56.6182 178.518 56.3709 178.56 56.1576 178.662C55.943 178.767 55.7802 178.931 55.6691 179.155C55.5729 179.361 55.5517 179.559 55.6053 179.749C55.6576 179.941 55.7685 180.133 55.9378 180.325C56.1033 180.518 56.3096 180.718 56.5567 180.925L57.3404 181.586C57.9079 182.064 58.2984 182.562 58.5119 183.081C58.7216 183.601 58.6907 184.142 58.4193 184.705C58.1959 185.169 57.8749 185.514 57.4563 185.741C57.035 185.967 56.5605 186.072 56.0327 186.054C55.5038 186.039 54.9641 185.9 54.4136 185.635C53.8555 185.366 53.4134 185.034 53.0873 184.637C52.7574 184.242 52.5548 183.815 52.4795 183.357C52.4029 182.901 52.4675 182.449 52.6733 182.003L54.0443 182.662Z" fill="#C1FF72"/>
<path d="M46.3277 174.7L48.4898 171.533L49.7649 172.401L44.8447 179.609L43.5979 178.76L45.4549 176.039L45.3915 175.996C45.0565 176.215 44.6963 176.322 44.3108 176.317C43.9214 176.313 43.5201 176.171 43.1068 175.889C42.7311 175.633 42.4572 175.332 42.2851 174.984C42.1129 174.637 42.0539 174.26 42.1079 173.853C42.1595 173.445 42.3342 173.022 42.6321 172.586L44.9817 169.144L46.2568 170.012L44.0417 173.257C43.7935 173.621 43.6944 173.968 43.7445 174.297C43.7907 174.628 43.9817 174.907 44.3174 175.136C44.5429 175.289 44.7784 175.378 45.0242 175.401C45.2659 175.424 45.4998 175.379 45.7257 175.265C45.9492 175.149 46.1499 174.961 46.3277 174.7Z" fill="#C1FF72"/>
<path d="M37.5119 162.103C37.9807 162.537 38.2913 163.017 38.4437 163.541C38.5961 164.066 38.595 164.602 38.4404 165.148C38.2838 165.692 37.9754 166.212 37.5152 166.707C37.055 167.203 36.5581 167.55 36.0245 167.748C35.4888 167.945 34.9533 167.987 34.4181 167.875C33.8829 167.762 33.3809 167.489 32.912 167.054C32.4432 166.62 32.1326 166.14 31.9802 165.615C31.8278 165.091 31.8309 164.555 31.9895 164.009C32.146 163.461 32.4543 162.939 32.9145 162.443C33.3747 161.948 33.8717 161.603 34.4054 161.408C34.9371 161.211 35.4706 161.169 36.0058 161.282C36.541 161.395 37.0431 161.668 37.5119 162.103ZM36.6645 163.002C36.4103 162.767 36.133 162.639 35.8326 162.62C35.5303 162.604 35.2272 162.675 34.9235 162.835C34.6176 162.993 34.3294 163.218 34.0587 163.51C33.786 163.803 33.5822 164.108 33.4472 164.424C33.3082 164.741 33.2584 165.049 33.2978 165.349C33.3372 165.649 33.484 165.917 33.7382 166.152C33.9986 166.394 34.2811 166.524 34.5855 166.543C34.8878 166.559 35.1929 166.488 35.5007 166.328C35.8044 166.168 36.0926 165.941 36.3653 165.647C36.636 165.356 36.8398 165.053 36.9769 164.738C37.1119 164.422 37.1597 164.114 37.1203 163.814C37.0769 163.514 36.925 163.244 36.6645 163.002Z" fill="#C1FF72"/>
<path d="M32.5411 152.911L25.5014 158.518L24.5549 157.332L25.4015 156.658L25.3457 156.588C25.1716 156.625 24.9694 156.643 24.739 156.641C24.5064 156.641 24.263 156.584 24.0087 156.471C23.7523 156.359 23.5045 156.153 23.2652 155.854C22.9497 155.458 22.7663 155.022 22.715 154.543C22.6598 154.064 22.7543 153.575 22.9988 153.075C23.2392 152.575 23.6438 152.098 24.2127 151.645C24.7749 151.197 25.3262 150.909 25.8666 150.78C26.4071 150.651 26.9074 150.662 27.3675 150.815C27.8276 150.968 28.2181 151.246 28.5389 151.647C28.7729 151.94 28.9181 152.222 28.9745 152.494C29.031 152.765 29.0373 153.014 28.9935 153.241C28.9456 153.468 28.8852 153.663 28.8122 153.827L28.8521 153.877L31.5786 151.705L32.5411 152.911ZM27.1174 155.297C27.4485 155.033 27.7013 154.755 27.8757 154.464C28.0484 154.17 28.1338 153.879 28.132 153.59C28.1262 153.3 28.0214 153.028 27.8175 152.772C27.6048 152.506 27.3556 152.339 27.0698 152.273C26.7818 152.208 26.477 152.229 26.1554 152.336C25.8299 152.443 25.5071 152.624 25.1871 152.879C24.8694 153.132 24.6235 153.402 24.4495 153.69C24.2755 153.977 24.1903 154.267 24.1939 154.558C24.1975 154.849 24.3065 155.129 24.521 155.398C24.7266 155.656 24.969 155.82 25.2481 155.892C25.5272 155.964 25.8262 155.949 26.1451 155.848C26.4622 155.744 26.7863 155.56 27.1174 155.297Z" fill="#C1FF72"/>
<path d="M23.2692 143.526L17.599 146.796L16.827 145.46L22.4972 142.19L23.2692 143.526ZM16.4061 146.588C16.5284 146.8 16.5635 147.022 16.5113 147.256C16.4567 147.491 16.3298 147.665 16.1304 147.78C15.9286 147.897 15.7135 147.919 15.4851 147.848C15.2542 147.777 15.0776 147.637 14.9554 147.425C14.8317 147.211 14.7978 146.988 14.8539 146.756C14.906 146.522 15.033 146.347 15.2348 146.231C15.4341 146.116 15.6492 146.094 15.8801 146.164C16.1071 146.233 16.2824 146.374 16.4061 146.588Z" fill="#C1FF72"/>
<path d="M10.3221 130.942L11.4329 130.507L12.848 134.108L11.7371 134.544L10.3221 130.942ZM17.4773 131.254L10.8081 133.869C10.3981 134.03 10.0237 134.079 9.68474 134.016C9.34478 133.951 9.05073 133.801 8.80259 133.566C8.55445 133.33 8.36129 133.037 8.22311 132.685C8.12545 132.437 8.05854 132.208 8.02237 131.999C7.9862 131.791 7.9658 131.634 7.96118 131.529L9.18426 131.379C9.18964 131.447 9.20126 131.531 9.2191 131.631C9.23431 131.732 9.26425 131.839 9.30892 131.953C9.41386 132.22 9.55294 132.384 9.72618 132.444C9.89573 132.502 10.0995 132.485 10.3376 132.392L16.9116 129.815L17.4773 131.254Z" fill="#C1FF72"/>
<path d="M16.0036 117.565C16.0504 117.77 16.0771 117.963 16.0838 118.145C16.0925 118.324 16.0879 118.469 16.0697 118.581L14.8183 118.499C14.8321 118.266 14.8179 118.064 14.7759 117.893C14.7339 117.722 14.6454 117.583 14.5104 117.477C14.3775 117.367 14.1802 117.294 13.9183 117.258L13.544 117.208L7.55812 121.007L7.19359 119.411L11.6771 116.842L11.6619 116.776L6.50536 116.4L6.13988 114.8L13.8782 115.724C14.2433 115.766 14.5688 115.858 14.8548 116C15.1434 116.141 15.3841 116.339 15.5767 116.596C15.7714 116.848 15.9137 117.171 16.0036 117.565Z" fill="#C1FF72"/>
<path d="M6.0753 87.6005C5.70121 87.6124 5.3997 87.7579 5.17079 88.0371C4.94209 88.3134 4.8102 88.6852 4.77513 89.1527C4.75048 89.4813 4.77891 89.7669 4.86042 90.0095C4.94193 90.252 5.063 90.442 5.22363 90.5793C5.38426 90.7167 5.57353 90.795 5.79146 90.8141C5.97277 90.8277 6.13308 90.7984 6.2724 90.7262C6.41192 90.6512 6.53385 90.5449 6.63818 90.4075C6.73968 90.2698 6.82817 90.1154 6.90368 89.9445C6.97918 89.7735 7.04488 89.6003 7.10076 89.425L7.36595 88.6244C7.4671 88.3015 7.5942 87.9934 7.74726 87.7C7.90053 87.4038 8.08536 87.1427 8.30173 86.9168C8.51832 86.688 8.77216 86.5133 9.06325 86.3926C9.35434 86.272 9.68828 86.2257 10.0651 86.2539C10.575 86.2921 11.0143 86.456 11.3828 86.7457C11.7486 87.0352 12.022 87.4346 12.2032 87.9438C12.3817 88.45 12.4448 89.0516 12.3925 89.7485C12.3417 90.4256 12.1928 91.0056 11.9458 91.4885C11.6989 91.9686 11.3638 92.3338 10.9405 92.5841C10.5174 92.8316 10.016 92.9451 9.4364 92.9245L9.55277 91.3735C9.8576 91.3735 10.1167 91.2989 10.3302 91.1496C10.5437 91.0004 10.7099 90.7977 10.8288 90.5417C10.9479 90.2828 11.0198 89.989 11.0445 89.6604C11.0702 89.3176 11.0417 89.0135 10.9591 88.7481C10.8738 88.4796 10.7447 88.2648 10.5716 88.1037C10.3956 87.9424 10.1831 87.851 9.93404 87.8295C9.70719 87.8154 9.51522 87.868 9.35812 87.9873C9.1982 88.1063 9.05984 88.2797 8.94304 88.5074C8.82363 88.7321 8.71257 88.9973 8.60986 89.303L8.28061 90.274C8.04269 90.977 7.72113 91.5227 7.31593 91.9111C6.90811 92.2965 6.39258 92.4659 5.76932 92.4192C5.25655 92.3809 4.81794 92.2084 4.45348 91.902C4.08924 91.5927 3.81895 91.1893 3.6426 90.6918C3.46343 90.194 3.39669 89.6406 3.44239 89.0316C3.48873 88.414 3.63698 87.8809 3.88714 87.4325C4.13468 86.9809 4.45826 86.6362 4.85786 86.3983C5.25462 86.1602 5.69838 86.0553 6.18912 86.0835L6.0753 87.6005Z" fill="#C1FF72"/>
<path d="M12.3166 75.1964L8.61885 74.3534L8.96249 72.8495L15.3442 74.3044L15.011 75.7626L13.8768 75.504L13.8616 75.5705C14.186 75.7959 14.4241 76.0993 14.5759 76.4807C14.7283 76.8593 14.7498 77.2881 14.6403 77.7673C14.5448 78.1855 14.3675 78.534 14.1085 78.813C13.8474 79.0886 13.5176 79.2756 13.1191 79.3742C12.7179 79.4721 12.2625 79.463 11.7528 79.3468L7.68949 78.4204L8.03313 76.9166L11.8638 77.7899C12.2682 77.8821 12.6148 77.8445 12.9037 77.6773C13.1925 77.51 13.3781 77.2464 13.4603 76.8864C13.511 76.6648 13.506 76.4378 13.4454 76.2055C13.3849 75.9732 13.2631 75.7662 13.0802 75.5846C12.8952 75.3997 12.6407 75.2703 12.3166 75.1964Z" fill="#C1FF72"/>
<path d="M20.3181 68.226L11.9389 64.9413L12.4937 63.5293L13.5015 63.9244L13.5342 63.8411C13.4152 63.709 13.2988 63.5428 13.1852 63.3427C13.0689 63.1415 12.9964 62.9025 12.9678 62.6258C12.9365 62.3481 12.991 62.0307 13.1313 61.6738C13.3162 61.2031 13.6033 60.8259 13.9926 60.5422C14.3802 60.2547 14.8518 60.0917 15.4072 60.0531C15.961 60.0109 16.5765 60.1225 17.2536 60.3879C17.9227 60.6502 18.4483 60.9829 18.8302 61.3859C19.2121 61.7888 19.4518 62.2276 19.5492 62.7021C19.6466 63.1767 19.6013 63.6532 19.4132 64.1318C19.2761 64.4808 19.1041 64.7476 18.8974 64.932C18.6906 65.1164 18.4777 65.2465 18.2587 65.3224C18.038 65.3946 17.8385 65.44 17.6603 65.4586L17.6369 65.5181L20.8823 66.7903L20.3181 68.226ZM15.5392 64.7277C15.9333 64.8822 16.3002 64.962 16.6401 64.9671C16.981 64.9695 17.2763 64.8976 17.5261 64.7514C17.7742 64.6015 17.958 64.3746 18.0775 64.0705C18.2022 63.7532 18.222 63.4543 18.1368 63.1737C18.0491 62.8922 17.8784 62.6391 17.6247 62.4146C17.3695 62.1864 17.0514 61.9976 16.6706 61.8483C16.2923 61.7 15.9351 61.6226 15.599 61.6159C15.2628 61.6092 14.9693 61.6803 14.7185 61.8291C14.4677 61.978 14.2795 62.2124 14.1538 62.5323C14.0332 62.839 14.0116 63.1311 14.0888 63.4085C14.1659 63.6859 14.3282 63.9372 14.5755 64.1623C14.8238 64.3848 15.1451 64.5733 15.5392 64.7277Z" fill="#C1FF72"/>
<path d="M25.9495 56.7418L18.1531 52.2457L18.9122 50.9323L19.8499 51.473L19.8947 51.3955C19.7967 51.2472 19.7064 51.0656 19.6238 50.8507C19.5388 50.6345 19.5028 50.3874 19.5158 50.1096C19.5262 49.8303 19.6274 49.5246 19.8194 49.1926C20.0724 48.7548 20.4126 48.4246 20.8399 48.202C21.2661 47.9756 21.7567 47.8846 22.3117 47.9292C22.8657 47.97 23.4577 48.172 24.0877 48.5353C24.7103 48.8944 25.1805 49.3016 25.4981 49.7569C25.8157 50.2123 25.9873 50.6818 26.0128 51.1655C26.0384 51.6492 25.9225 52.1136 25.6652 52.5588C25.4775 52.8835 25.2677 53.1216 25.0357 53.2731C24.8038 53.4247 24.5738 53.5216 24.3459 53.564C24.1169 53.6025 23.9129 53.6176 23.7339 53.6095L23.7019 53.6648L26.7215 55.4062L25.9495 56.7418ZM21.7452 52.5709C22.1119 52.7824 22.4629 52.9159 22.7982 52.9716C23.135 53.0248 23.4378 52.9977 23.7066 52.8903C23.9743 52.7791 24.1899 52.582 24.3534 52.2992C24.524 52.004 24.5882 51.7114 24.5458 51.4214C24.501 51.1299 24.3699 50.8543 24.1526 50.5945C23.9342 50.3308 23.6478 50.0968 23.2934 49.8924C22.9415 49.6895 22.5998 49.5597 22.2683 49.503C21.9369 49.4463 21.636 49.4728 21.3658 49.5827C21.0956 49.6925 20.8745 49.8962 20.7025 50.1938C20.5376 50.4791 20.4726 50.7647 20.5076 51.0505C20.5425 51.3363 20.6655 51.6089 20.8765 51.8683C21.0889 52.1252 21.3785 52.3594 21.7452 52.5709Z" fill="#C1FF72"/>
<path d="M33.1928 42.5432C32.794 43.0428 32.3384 43.3881 31.8259 43.5791C31.3134 43.7702 30.7788 43.8093 30.222 43.6962C29.6669 43.581 29.1249 43.3127 28.5961 42.8914C28.0672 42.4702 27.6837 42.0012 27.4454 41.4846C27.209 40.9657 27.127 40.4355 27.1995 39.894C27.2719 39.3524 27.5076 38.8319 27.9064 38.3324C28.3052 37.8328 28.7609 37.4875 29.2733 37.2964C29.7858 37.1054 30.3207 37.0683 30.8779 37.1854C31.437 37.3002 31.981 37.5682 32.5098 37.9895C33.0387 38.4107 33.4202 38.8799 33.6545 39.397C33.8905 39.9119 33.9723 40.4401 33.8998 40.9816C33.8273 41.5232 33.5916 42.0437 33.1928 42.5432ZM32.2315 41.7666C32.4478 41.4958 32.5541 41.21 32.5506 40.9094C32.5448 40.607 32.4507 40.3105 32.2683 40.0199C32.0877 39.7271 31.8418 39.4568 31.5307 39.209C31.2174 38.9594 30.8977 38.7792 30.5717 38.6685C30.2453 38.5537 29.9338 38.5272 29.6374 38.5889C29.3409 38.6506 29.0846 38.8168 28.8683 39.0877C28.6468 39.3652 28.538 39.6563 28.542 39.9609C28.5477 40.2633 28.642 40.5618 28.8249 40.8564C29.0073 41.147 29.2552 41.4171 29.5685 41.6666C29.8796 41.9144 30.1973 42.0948 30.5215 42.2078C30.8475 42.3186 31.1587 42.3431 31.4552 42.2814C31.7512 42.2157 32.01 42.0441 32.2315 41.7666Z" fill="#C1FF72"/>
<path d="M40.331 35.1103L35.8762 30.3147L36.9733 29.298L37.7157 30.0972L37.7657 30.0509C37.5961 29.693 37.5479 29.3406 37.6213 28.9938C37.6947 28.6429 37.869 28.34 38.144 28.0851C38.2065 28.0272 38.2792 27.9656 38.3621 27.9004C38.4452 27.8312 38.5176 27.7777 38.5793 27.7398L39.5451 28.7794C39.4817 28.8072 39.3921 28.8631 39.2764 28.9472C39.1607 29.0272 39.055 29.1117 38.9591 29.2005C38.7529 29.3917 38.609 29.6083 38.5275 29.8504C38.4462 30.0884 38.4312 30.3289 38.4824 30.5719C38.5337 30.815 38.654 31.0384 38.8435 31.2424L41.4625 34.0617L40.331 35.1103Z" fill="#C1FF72"/>
<path d="M49.691 19.73L50.3637 20.7155L47.2536 22.8334L46.5809 21.8479L49.691 19.73ZM46.4647 20.0298L47.7397 19.1615L51.204 24.2368C51.3209 24.4081 51.4364 24.5219 51.5506 24.5782C51.6654 24.6306 51.7775 24.6436 51.8868 24.6173C51.9961 24.591 52.1036 24.5419 52.2093 24.4699C52.2891 24.4155 52.3579 24.3601 52.4156 24.3036C52.4757 24.2455 52.5202 24.1998 52.549 24.1664L53.4437 25.0161C53.3917 25.086 53.3118 25.1781 53.2042 25.2926C53.099 25.4055 52.9576 25.5259 52.78 25.6537C52.4671 25.8806 52.1466 26.0284 51.8186 26.0971C51.4889 26.1634 51.1721 26.1352 50.8681 26.0123C50.5664 25.8877 50.3014 25.6557 50.0731 25.3163L46.4647 20.0298Z" fill="#C1FF72"/>
<path d="M87.055 10.472C86.9638 9.96291 86.967 9.52718 87.0646 9.16486C87.165 8.80212 87.3374 8.51617 87.5816 8.30703C87.8283 8.09465 88.1272 7.96202 88.4783 7.90916C88.7508 7.86813 89.0152 7.88723 89.2713 7.96646C89.5271 8.04287 89.83 8.19406 90.1801 8.42002C90.38 8.54507 90.5433 8.63684 90.6699 8.69535C90.7965 8.75385 90.9343 8.7719 91.0832 8.74948C91.2967 8.71734 91.4571 8.60987 91.5646 8.42706C91.6744 8.24102 91.6999 7.98149 91.641 7.64848L92.8631 7.4645C92.9538 7.97084 92.9476 8.40559 92.8444 8.76875C92.744 9.13149 92.5705 9.41905 92.3238 9.63143C92.0767 9.841 91.7819 9.97158 91.4391 10.0232C91.1582 10.0655 90.888 10.0458 90.6286 9.96421C90.3692 9.8826 90.0695 9.7338 89.7295 9.5178C89.5195 9.38279 89.353 9.28863 89.2301 9.23532C89.1099 9.18158 88.9768 9.16571 88.8307 9.1877C88.6256 9.21858 88.4659 9.32163 88.3516 9.49685C88.2396 9.66885 88.2134 9.9328 88.2728 10.2887L87.055 10.472Z" fill="#C1FF72"/>
</svg>
