<svg width="1014" height="965" viewBox="0 0 1014 965" fill="none" xmlns="http://www.w3.org/2000/svg">
<path d="M483.147 812.717C483.212 813.802 483.681 814.666 484.554 815.309C485.428 815.952 486.524 816.308 487.843 816.377C488.808 816.427 489.661 816.315 490.402 816.041C491.137 815.767 491.722 815.367 492.158 814.842C492.587 814.317 492.822 813.707 492.862 813.012C492.896 812.431 492.787 811.923 492.535 811.491C492.275 811.065 491.933 810.702 491.51 810.402C491.086 810.11 490.638 809.862 490.166 809.66C489.693 809.465 489.258 809.303 488.86 809.176L486.682 808.464C486.123 808.286 485.504 808.047 484.824 807.749C484.137 807.449 483.488 807.056 482.876 806.569C482.256 806.089 481.758 805.487 481.38 804.763C481.003 804.039 480.843 803.167 480.903 802.146C480.971 800.969 481.342 799.921 482.014 799.003C482.68 798.085 483.617 797.377 484.827 796.878C486.03 796.379 487.468 796.174 489.142 796.261C490.703 796.343 492.039 796.665 493.152 797.228C494.257 797.791 495.11 798.54 495.71 799.474C496.303 800.408 496.607 801.473 496.623 802.669L493.9 802.526C493.877 801.7 493.64 801.005 493.189 800.441C492.73 799.884 492.136 799.454 491.407 799.153C490.67 798.859 489.869 798.689 489.004 798.643C487.996 798.591 487.083 798.707 486.262 798.991C485.441 799.282 484.78 799.71 484.277 800.274C483.775 800.845 483.5 801.528 483.454 802.322C483.412 803.045 483.58 803.644 483.957 804.119C484.335 804.594 484.846 804.99 485.489 805.308C486.132 805.626 486.83 805.912 487.584 806.165L490.22 807.071C491.894 807.649 493.201 808.418 494.141 809.377C495.081 810.337 495.509 811.55 495.423 813.018C495.352 814.237 494.96 815.284 494.248 816.157C493.528 817.037 492.593 817.699 491.443 818.144C490.286 818.595 489.012 818.785 487.622 818.712C486.217 818.639 484.984 818.322 483.921 817.761C482.857 817.208 482.032 816.482 481.444 815.583C480.849 814.685 480.565 813.685 480.594 812.584L483.147 812.717Z" fill="#717171"/>
<path d="M455.059 803.334L456.757 793.637L459.24 794.032L455.476 815.523L452.993 815.128L454.375 807.237L454.165 807.204C453.64 807.976 452.956 808.547 452.113 808.916C451.262 809.291 450.201 809.378 448.931 809.176C447.83 809.001 446.904 808.627 446.154 808.055C445.402 807.49 444.877 806.719 444.579 805.744C444.273 804.775 444.242 803.598 444.484 802.213L446.278 791.971L448.761 792.366L446.997 802.44C446.772 803.72 446.932 804.763 447.476 805.569C448.012 806.38 448.865 806.879 450.036 807.065C450.85 807.194 451.61 807.139 452.315 806.899C453.013 806.658 453.606 806.238 454.093 805.639C454.573 805.039 454.895 804.271 455.059 803.334Z" fill="#717171"/>
<path d="M417.416 784.49C418.843 784.874 419.994 785.548 420.871 786.512C421.74 787.475 422.297 788.643 422.541 790.018C422.778 791.39 422.656 792.887 422.175 794.508C421.69 796.142 420.968 797.488 420.01 798.546C419.045 799.602 417.927 800.323 416.658 800.709C415.381 801.093 414.029 801.093 412.603 800.708C411.176 800.324 410.028 799.651 409.159 798.688C408.282 797.724 407.726 796.552 407.491 795.173C407.25 793.791 407.371 792.284 407.856 790.65C408.337 789.029 409.059 787.694 410.022 786.645C410.979 785.594 412.095 784.876 413.372 784.492C414.642 784.106 415.99 784.105 417.416 784.49ZM416.774 786.655C415.69 786.363 414.717 786.399 413.854 786.762C412.99 787.125 412.257 787.71 411.655 788.519C411.052 789.327 410.595 790.255 410.284 791.304C409.973 792.352 409.851 793.375 409.918 794.371C409.985 795.367 410.286 796.238 410.82 796.985C411.353 797.732 412.162 798.251 413.245 798.543C414.329 798.835 415.303 798.796 416.169 798.426C417.034 798.056 417.769 797.464 418.373 796.649C418.978 795.834 419.436 794.902 419.747 793.853C420.059 792.805 420.18 791.786 420.11 790.797C420.041 789.807 419.738 788.943 419.203 788.203C418.667 787.463 417.857 786.947 416.774 786.655Z" fill="#717171"/>
<path d="M389.085 769.986L380.262 790.684L377.997 789.807L379.016 787.416L378.738 787.308C378.454 787.503 378.074 787.744 377.596 788.031C377.109 788.322 376.51 788.516 375.797 788.614C375.075 788.715 374.217 788.573 373.224 788.188C371.939 787.691 370.941 786.936 370.231 785.923C369.521 784.91 369.139 783.715 369.085 782.34C369.031 780.964 369.341 779.486 370.015 777.904C370.694 776.31 371.558 775.035 372.606 774.078C373.652 773.128 374.798 772.521 376.045 772.258C377.288 772.001 378.546 772.118 379.818 772.61C380.798 772.99 381.515 773.454 381.968 774.002C382.418 774.557 382.714 775.101 382.857 775.636C382.997 776.177 383.094 776.618 383.149 776.959L383.348 777.036L386.74 769.079L389.085 769.986ZM381.165 782.265C381.65 781.129 381.908 780.06 381.941 779.061C381.971 778.067 381.766 777.2 381.325 776.459C380.882 775.724 380.191 775.175 379.25 774.811C378.27 774.432 377.343 774.37 376.47 774.626C375.588 774.886 374.796 775.386 374.094 776.127C373.383 776.871 372.799 777.78 372.343 778.851C371.891 779.909 371.65 780.927 371.62 781.905C371.579 782.886 371.784 783.754 372.235 784.506C372.676 785.263 373.394 785.834 374.387 786.218C375.341 786.588 376.244 786.659 377.097 786.434C377.946 786.214 378.718 785.744 379.411 785.023C380.101 784.308 380.686 783.389 381.165 782.265Z" fill="#717171"/>
<path d="M350.9 759.552L342.819 773.78L340.584 772.628L348.666 758.399L350.9 759.552ZM340.335 775.566C340.771 775.79 341.064 776.129 341.215 776.582C341.359 777.032 341.316 777.461 341.084 777.868C340.853 778.276 340.5 778.545 340.026 778.676C339.545 778.803 339.087 778.755 338.652 778.53C338.216 778.306 337.926 777.968 337.782 777.519C337.631 777.066 337.671 776.635 337.903 776.228C338.134 775.82 338.49 775.553 338.971 775.425C339.445 775.294 339.9 775.341 340.335 775.566Z" fill="#717171"/>
<path d="M303.634 750.188L304.888 748.465L312.248 753.327L310.994 755.05L303.634 750.188ZM318.418 740.363L307.461 755.42C306.909 756.178 306.266 756.688 305.53 756.951C304.795 757.214 304.042 757.277 303.272 757.142C302.501 757.008 301.79 756.725 301.138 756.294C300.623 755.954 300.231 755.635 299.964 755.34C299.696 755.044 299.508 754.809 299.398 754.634L301.281 753.276C301.363 753.381 301.48 753.522 301.632 753.699C301.778 753.872 302.002 754.058 302.304 754.258C302.997 754.716 303.621 754.878 304.176 754.742C304.725 754.603 305.237 754.206 305.714 753.552L316.32 738.977L318.418 740.363Z" fill="#717171"/>
<path d="M295.795 715.941C296.123 716.213 296.391 716.482 296.6 716.747C296.814 717.008 296.949 717.202 297.004 717.331L295.017 718.559C294.652 718.053 294.275 717.667 293.886 717.399C293.496 717.131 293.035 717.02 292.503 717.067C291.969 717.103 291.305 717.331 290.509 717.749L289.286 718.394L282.845 734.399L280.746 732.657L286.068 720.148L285.936 720.039L273.663 726.78L271.564 725.038L289.559 715.634C290.37 715.21 291.14 714.94 291.869 714.826C292.603 714.707 293.296 714.743 293.948 714.933C294.594 715.12 295.21 715.456 295.795 715.941Z" fill="#717171"/>
<path d="M241.914 669.225L246.027 674.556L228.155 687.072L223.86 681.504C222.568 679.829 221.819 678.144 221.615 676.451C221.405 674.762 221.721 673.133 222.563 671.564C223.4 670 224.743 668.57 226.593 667.274C228.454 665.971 230.304 665.169 232.143 664.869C233.975 664.573 235.725 664.785 237.392 665.506C239.053 666.231 240.561 667.47 241.914 669.225ZM242.493 673.809L240.099 670.704C238.997 669.276 237.798 668.292 236.504 667.752C235.209 667.212 233.858 667.08 232.449 667.357C231.04 667.633 229.609 668.28 228.154 669.299C226.712 670.309 225.645 671.407 224.955 672.592C224.26 673.78 223.982 675.023 224.122 676.32C224.256 677.62 224.843 678.945 225.884 680.295L228.461 683.635L242.493 673.809Z" fill="#717171"/>
<path d="M221.375 638.456C222.192 639.804 222.592 641.135 222.575 642.449C222.547 643.76 222.143 644.982 221.362 646.116C220.571 647.248 219.441 648.218 217.972 649.026C216.504 649.834 215.051 650.285 213.615 650.378C212.168 650.47 210.845 650.217 209.646 649.621C208.437 649.023 207.45 648.092 206.685 646.829C206.243 646.1 205.931 645.312 205.749 644.464C205.568 643.616 205.58 642.747 205.787 641.856C205.987 640.968 206.44 640.099 207.145 639.25C207.85 638.4 208.872 637.608 210.209 636.872L211.143 636.358L217.68 647.146L215.775 648.193L210.564 639.592C209.755 640.038 209.129 640.593 208.685 641.258C208.238 641.916 208.006 642.635 207.988 643.414C207.967 644.187 208.192 644.963 208.663 645.74C209.182 646.597 209.849 647.218 210.664 647.604C211.469 647.987 212.318 648.156 213.211 648.11C214.104 648.064 214.946 647.824 215.736 647.389L217.006 646.691C218.088 646.095 218.896 645.408 219.428 644.629C219.95 643.848 220.208 643.021 220.203 642.15C220.191 641.282 219.922 640.413 219.396 639.545C219.054 638.98 218.664 638.514 218.226 638.147C217.778 637.778 217.288 637.517 216.756 637.365C216.217 637.215 215.644 637.187 215.036 637.278L214.374 634.872C215.229 634.694 216.086 634.712 216.947 634.927C217.801 635.146 218.61 635.551 219.375 636.142C220.134 636.737 220.801 637.508 221.375 638.456Z" fill="#717171"/>
<path d="M185.027 605.782L202.655 604.969L203.724 607.291L191.157 619.098L190.016 616.621L200.159 607.489L200.087 607.334L186.167 608.259L185.027 605.782Z" fill="#717171"/>
<path d="M192.011 575.174C192.503 576.672 192.594 578.064 192.283 579.349C191.964 580.629 191.298 581.743 190.286 582.689C189.265 583.63 187.952 584.34 186.345 584.819C184.739 585.298 183.228 585.429 181.812 585.214C180.388 584.994 179.16 584.464 178.129 583.623C177.089 582.777 176.339 581.652 175.878 580.249C175.612 579.439 175.486 578.599 175.499 577.728C175.512 576.857 175.719 576.007 176.119 575.176C176.512 574.348 177.145 573.592 178.02 572.91C178.894 572.227 180.063 571.667 181.526 571.231L182.547 570.927L186.481 582.911L184.398 583.532L181.262 573.977C180.377 574.241 179.645 574.651 179.066 575.209C178.485 575.76 178.098 576.416 177.907 577.177C177.714 577.931 177.759 578.74 178.043 579.603C178.355 580.555 178.863 581.307 179.568 581.86C180.264 582.409 181.05 582.756 181.927 582.902C182.805 583.048 183.676 582.992 184.54 582.734L185.929 582.321C187.113 581.968 188.05 581.466 188.741 580.816C189.423 580.161 189.858 579.405 190.048 578.548C190.231 577.694 190.164 576.784 189.847 575.819C189.641 575.191 189.366 574.651 189.023 574.198C188.671 573.739 188.254 573.379 187.771 573.115C187.282 572.853 186.732 572.702 186.121 572.662L186.016 570.16C186.886 570.167 187.714 570.369 188.501 570.764C189.282 571.161 189.977 571.732 190.588 572.476C191.191 573.222 191.666 574.121 192.011 575.174Z" fill="#717171"/>
<path d="M160.762 544.884L182.212 540.892L182.716 543.355L161.267 547.347L160.762 544.884Z" fill="#717171"/>
<path d="M178.552 507.623C178.68 509.095 178.442 510.414 177.838 511.58C177.233 512.739 176.327 513.68 175.121 514.402C173.914 515.117 172.468 515.541 170.783 515.674C169.084 515.808 167.574 515.617 166.253 515.102C164.932 514.579 163.872 513.794 163.075 512.745C162.278 511.69 161.815 510.426 161.687 508.954C161.559 507.483 161.798 506.167 162.403 505.008C163.007 503.842 163.916 502.901 165.13 502.185C166.343 501.463 167.799 501.034 169.498 500.9C171.184 500.767 172.683 500.962 173.998 501.485C175.312 502.001 176.367 502.787 177.165 503.843C177.962 504.891 178.424 506.151 178.552 507.623ZM176.301 507.801C176.203 506.683 175.837 505.786 175.2 505.109C174.564 504.433 173.764 503.958 172.799 503.685C171.834 503.412 170.807 503.319 169.716 503.405C168.626 503.491 167.625 503.744 166.713 504.166C165.802 504.587 165.087 505.181 164.569 505.948C164.052 506.716 163.841 507.659 163.939 508.777C164.036 509.895 164.406 510.791 165.049 511.467C165.693 512.143 166.5 512.617 167.472 512.89C168.444 513.162 169.475 513.255 170.565 513.169C171.656 513.083 172.653 512.83 173.558 512.409C174.462 511.989 175.17 511.395 175.68 510.628C176.191 509.861 176.398 508.919 176.301 507.801Z" fill="#717171"/>
<path d="M183.167 477.589L160.675 476.998L160.745 474.57L163.344 474.638L163.352 474.34C163.074 474.148 162.719 473.883 162.288 473.545C161.85 473.199 161.467 472.713 161.137 472.086C160.8 471.452 160.647 470.603 160.677 469.538C160.717 468.161 161.097 466.956 161.816 465.923C162.535 464.891 163.535 464.096 164.816 463.54C166.096 462.984 167.596 462.729 169.314 462.774C171.046 462.819 172.54 463.153 173.793 463.776C175.04 464.398 175.996 465.241 176.662 466.302C177.32 467.364 177.63 468.577 177.59 469.94C177.56 470.99 177.362 471.827 176.996 472.45C176.622 473.072 176.207 473.548 175.75 473.877C175.286 474.206 174.902 474.459 174.598 474.635L174.592 474.848L183.24 475.075L183.167 477.589ZM168.925 474.742C170.161 474.775 171.256 474.622 172.21 474.285C173.158 473.947 173.908 473.438 174.461 472.756C175.006 472.074 175.294 471.229 175.323 470.221C175.353 469.17 175.102 468.286 174.568 467.569C174.028 466.844 173.291 466.292 172.357 465.912C171.416 465.525 170.363 465.316 169.199 465.286C168.049 465.256 167.007 465.406 166.074 465.737C165.134 466.06 164.383 466.57 163.823 467.265C163.256 467.954 162.957 468.831 162.927 469.895C162.897 470.918 163.131 471.784 163.629 472.493C164.121 473.202 164.822 473.746 165.735 474.126C166.641 474.505 167.704 474.71 168.925 474.742Z" fill="#717171"/>
<path d="M180.711 438.084C180.483 439.644 179.943 440.944 179.088 441.985C178.227 443.017 177.129 443.757 175.794 444.204C174.453 444.642 172.951 444.752 171.289 444.533C169.628 444.313 168.207 443.817 167.028 443.045C165.842 442.266 164.973 441.284 164.421 440.101C163.862 438.909 163.689 437.583 163.902 436.121C164.025 435.278 164.287 434.463 164.688 433.678C165.089 432.893 165.656 432.205 166.388 431.614C167.113 431.022 168.022 430.594 169.115 430.33C170.208 430.067 171.512 430.035 173.026 430.235L174.082 430.374L172.265 442.856L170.111 442.572L171.559 432.62C170.644 432.499 169.801 432.574 169.029 432.844C168.259 433.108 167.617 433.546 167.105 434.159C166.593 434.764 166.272 435.517 166.141 436.417C165.997 437.408 166.118 438.298 166.506 439.087C166.887 439.868 167.441 440.503 168.166 440.993C168.891 441.483 169.701 441.787 170.595 441.905L172.032 442.095C173.257 442.257 174.326 442.183 175.239 441.874C176.147 441.557 176.878 441.048 177.432 440.348C177.979 439.646 178.325 438.793 178.471 437.788C178.567 437.134 178.561 436.532 178.455 435.981C178.342 435.421 178.128 434.924 177.811 434.488C177.487 434.051 177.058 433.69 176.526 433.405L177.552 431.091C178.332 431.451 178.988 431.972 179.521 432.651C180.046 433.329 180.418 434.13 180.635 435.054C180.845 435.978 180.87 436.987 180.711 438.084Z" fill="#717171"/>
<path d="M185.794 407.47L169.887 403.632L170.51 401.284L172.913 401.864L172.957 401.699C172.246 401.221 171.746 400.545 171.457 399.672C171.167 398.799 171.148 397.888 171.4 396.941C171.448 396.763 171.51 396.54 171.588 396.274C171.667 396.008 171.731 395.808 171.781 395.674L174.266 396.274C174.224 396.351 174.143 396.533 174.023 396.818C173.898 397.094 173.792 397.394 173.707 397.717C173.502 398.485 173.482 399.211 173.646 399.893C173.805 400.567 174.121 401.147 174.594 401.634C175.062 402.112 175.655 402.438 176.373 402.611L186.439 405.04L185.794 407.47Z" fill="#717171"/>
<path d="M220.629 311.951C219.616 311.345 218.919 310.686 218.539 309.973C218.159 309.26 218.013 308.551 218.102 307.845C218.194 307.133 218.445 306.479 218.854 305.881C219.264 305.284 219.773 304.824 220.382 304.5C220.989 304.168 221.797 303.86 222.808 303.579C223.491 303.385 223.999 303.209 224.333 303.048C224.67 302.882 224.945 302.644 225.158 302.334C225.504 301.83 225.59 301.315 225.417 300.79C225.238 300.26 224.786 299.778 224.06 299.343L225.361 297.446C226.374 298.051 227.071 298.71 227.451 299.423C227.835 300.13 227.981 300.84 227.889 301.551C227.797 302.263 227.546 302.917 227.136 303.515C226.726 304.112 226.22 304.574 225.617 304.901C225.009 305.224 224.197 305.53 223.182 305.818C222.503 306.005 221.995 306.182 221.658 306.348C221.32 306.514 221.045 306.752 220.832 307.062C220.507 307.537 220.409 308.036 220.54 308.561C220.669 309.075 221.132 309.573 221.93 310.053L220.629 311.951Z" fill="#717171"/>
<path d="M298.17 217.766C297.384 217.006 296.437 216.666 295.33 216.746C294.222 216.825 293.138 217.258 292.077 218.045C291.301 218.621 290.721 219.245 290.337 219.919C289.958 220.588 289.779 221.255 289.8 221.92C289.827 222.58 290.06 223.18 290.5 223.719C290.869 224.17 291.297 224.475 291.784 224.635C292.273 224.784 292.782 224.835 293.311 224.788C293.835 224.734 294.348 224.633 294.848 224.482C295.344 224.327 295.788 224.17 296.181 224.011L298.338 223.153C298.889 222.93 299.527 222.713 300.252 222.502C300.983 222.287 301.749 222.165 302.55 222.136C303.352 222.097 304.144 222.226 304.925 222.521C305.707 222.816 306.421 223.359 307.068 224.151C307.814 225.064 308.24 226.073 308.345 227.178C308.457 228.279 308.217 229.398 307.625 230.535C307.038 231.667 306.072 232.733 304.726 233.731C303.471 234.662 302.224 235.273 300.987 235.563C299.755 235.85 298.591 235.838 297.496 235.529C296.406 235.215 295.45 234.622 294.626 233.749L296.817 232.124C297.395 232.72 298.049 233.083 298.778 233.213C299.509 233.334 300.257 233.274 301.022 233.033C301.789 232.783 302.52 232.399 303.216 231.883C304.026 231.283 304.65 230.617 305.088 229.886C305.521 229.149 305.74 228.413 305.744 227.677C305.743 226.936 305.491 226.257 304.987 225.641C304.529 225.08 303.993 224.744 303.381 224.633C302.768 224.522 302.107 224.554 301.396 224.727C300.686 224.901 299.955 225.133 299.205 225.425L296.563 226.43C294.884 227.066 293.357 227.328 291.983 227.216C290.61 227.105 289.458 226.479 288.528 225.341C287.755 224.395 287.346 223.373 287.302 222.275C287.258 221.168 287.528 220.085 288.11 219.026C288.694 217.958 289.544 217.009 290.662 216.179C291.792 215.342 292.956 214.792 294.153 214.531C295.346 214.265 296.473 214.277 297.535 214.567C298.602 214.853 299.498 215.412 300.223 216.243L298.17 217.766Z" fill="#717171"/>
<path d="M325.486 207.328L330.823 215.6L328.653 216.871L316.825 198.537L318.995 197.266L323.338 203.998L323.522 203.89C323.394 202.986 323.527 202.132 323.919 201.326C324.314 200.511 325.066 199.779 326.175 199.129C327.137 198.566 328.101 198.26 329.067 198.213C330.029 198.159 330.957 198.401 331.852 198.937C332.75 199.464 333.579 200.318 334.342 201.5L339.979 210.237L337.809 211.508L332.265 202.914C331.56 201.822 330.724 201.148 329.757 200.892C328.792 200.627 327.798 200.794 326.774 201.393C326.063 201.81 325.52 202.329 325.145 202.952C324.776 203.571 324.61 204.256 324.647 205.007C324.691 205.755 324.97 206.529 325.486 207.328Z" fill="#717171"/>
<path d="M366.368 197.152C365.021 197.758 363.683 197.974 362.354 197.802C361.031 197.626 359.804 197.1 358.673 196.223C357.548 195.344 356.611 194.147 355.861 192.632C355.104 191.104 354.726 189.644 354.725 188.252C354.731 186.856 355.083 185.616 355.781 184.532C356.486 183.444 357.512 182.598 358.86 181.992C360.207 181.386 361.542 181.171 362.865 181.347C364.194 181.52 365.422 182.049 366.55 182.935C367.684 183.818 368.629 185.023 369.386 186.55C370.136 188.065 370.507 189.517 370.498 190.906C370.495 192.292 370.142 193.529 369.437 194.617C368.738 195.701 367.716 196.546 366.368 197.152ZM365.366 195.128C366.389 194.668 367.104 194.032 367.509 193.219C367.914 192.406 368.068 191.509 367.969 190.526C367.87 189.543 367.578 188.561 367.093 187.581C366.607 186.601 365.996 185.759 365.26 185.056C364.523 184.352 363.695 183.888 362.776 183.663C361.857 183.438 360.885 183.556 359.862 184.016C358.839 184.476 358.126 185.116 357.724 185.935C357.321 186.754 357.171 187.658 357.273 188.647C357.375 189.636 357.668 190.621 358.154 191.601C358.639 192.581 359.249 193.42 359.982 194.117C360.716 194.814 361.541 195.272 362.457 195.491C363.373 195.709 364.342 195.588 365.366 195.128Z" fill="#717171"/>
<path d="M397.807 190.571L390.18 169.403L392.489 168.648L393.37 171.093L393.653 171C393.733 170.676 393.853 170.255 394.014 169.74C394.18 169.215 394.497 168.693 394.966 168.173C395.44 167.645 396.183 167.215 397.196 166.884C398.505 166.456 399.776 166.402 401.009 166.723C402.242 167.045 403.352 167.708 404.341 168.715C405.33 169.721 406.116 171.032 406.698 172.649C407.286 174.28 407.515 175.784 407.385 177.164C407.254 178.536 406.809 179.712 406.053 180.692C405.294 181.664 404.267 182.363 402.971 182.787C401.972 183.113 401.113 183.211 400.394 183.081C399.673 182.943 399.075 182.717 398.599 182.402C398.121 182.08 397.743 181.808 397.467 181.584L397.264 181.651L400.197 189.789L397.807 190.571ZM395.303 176.332C395.722 177.494 396.263 178.464 396.928 179.24C397.59 180.009 398.342 180.536 399.184 180.821C400.024 181.099 400.923 181.081 401.881 180.768C402.88 180.441 403.62 179.908 404.101 179.168C404.585 178.419 404.837 177.545 404.854 176.546C404.875 175.538 404.689 174.487 404.294 173.391C403.904 172.308 403.384 171.388 402.733 170.63C402.087 169.863 401.335 169.336 400.477 169.048C399.623 168.753 398.69 168.77 397.678 169.101C396.706 169.419 395.977 169.93 395.491 170.635C395.003 171.332 394.746 172.17 394.722 173.149C394.695 174.122 394.889 175.183 395.303 176.332Z" fill="#717171"/>
<path d="M433.801 174.734L430.055 158.805L432.514 158.28L436.26 174.209L433.801 174.734ZM430.681 155.884C430.201 155.986 429.75 155.912 429.326 155.661C428.909 155.409 428.647 155.054 428.54 154.598C428.433 154.142 428.511 153.715 428.775 153.317C429.046 152.918 429.421 152.667 429.9 152.565C430.379 152.463 430.827 152.538 431.244 152.79C431.668 153.041 431.933 153.394 432.041 153.851C432.148 154.307 432.066 154.735 431.795 155.134C431.531 155.531 431.16 155.781 430.681 155.884Z" fill="#717171"/>
<path d="M475.64 151.111L475.886 153.227L467.114 154.153L466.868 152.036L475.64 151.111ZM471.384 168.013L469.235 149.516C469.127 148.584 469.256 147.785 469.621 147.118C469.987 146.451 470.502 145.926 471.165 145.541C471.828 145.157 472.548 144.924 473.325 144.842C473.94 144.777 474.447 144.774 474.847 144.832C475.247 144.89 475.547 144.951 475.747 145.015L475.278 147.25C475.146 147.221 474.963 147.187 474.73 147.147C474.503 147.107 474.21 147.106 473.85 147.144C473.023 147.231 472.451 147.502 472.132 147.957C471.82 148.411 471.711 149.04 471.804 149.844L473.884 167.75L471.384 168.013Z" fill="#717171"/>
<path d="M506.071 173.136C505.645 173.136 505.265 173.101 504.931 173.03C504.597 172.966 504.366 172.902 504.238 172.838L504.878 170.622C505.488 170.778 506.028 170.835 506.497 170.793C506.966 170.75 507.381 170.54 507.743 170.164C508.113 169.795 508.45 169.195 508.756 168.364L509.224 167.085L503.173 150.636H505.9L510.417 163.676H510.588L515.105 150.636H517.832L510.886 169.386C510.574 170.232 510.187 170.931 509.725 171.485C509.263 172.046 508.727 172.462 508.116 172.732C507.513 173.001 506.831 173.136 506.071 173.136Z" fill="#717171"/>
<path d="M592.056 161.809L589.472 161.257C589.493 160.485 589.379 159.778 589.128 159.136C588.885 158.496 588.537 157.928 588.085 157.432C587.641 156.931 587.115 156.514 586.508 156.181C585.901 155.848 585.243 155.606 584.534 155.454C583.242 155.179 581.996 155.254 580.794 155.679C579.599 156.107 578.544 156.887 577.628 158.02C576.72 159.155 576.049 160.642 575.616 162.481C575.184 164.32 575.124 165.937 575.438 167.333C575.759 168.73 576.363 169.865 577.252 170.737C578.148 171.611 579.242 172.186 580.534 172.462C581.243 172.613 581.946 172.662 582.644 172.608C583.343 172.553 584.004 172.393 584.628 172.127C585.261 171.856 585.831 171.48 586.338 171C586.853 170.515 587.274 169.922 587.599 169.222L590.182 169.773C589.733 170.817 589.15 171.713 588.434 172.461C587.719 173.208 586.908 173.801 586.003 174.239C585.099 174.671 584.135 174.941 583.11 175.049C582.092 175.158 581.045 175.098 579.968 174.868C578.148 174.479 576.634 173.691 575.425 172.504C574.217 171.316 573.398 169.82 572.969 168.015C572.54 166.21 572.589 164.187 573.116 161.947C573.643 159.707 574.504 157.858 575.701 156.4C576.897 154.942 578.308 153.922 579.933 153.339C581.558 152.757 583.281 152.66 585.1 153.048C586.177 153.278 587.151 153.65 588.022 154.162C588.901 154.677 589.651 155.316 590.274 156.081C590.898 156.839 591.366 157.701 591.678 158.668C591.992 159.628 592.118 160.675 592.056 161.809Z" fill="#717171"/>
<path d="M614.617 183.773C613.213 183.314 612.101 182.58 611.279 181.572C610.464 180.566 609.974 179.371 609.809 177.988C609.65 176.606 609.857 175.12 610.43 173.53C611.008 171.926 611.806 170.623 612.824 169.619C613.849 168.617 615.007 167.958 616.299 167.641C617.597 167.326 618.948 167.398 620.352 167.857C621.756 168.316 622.866 169.049 623.68 170.055C624.502 171.063 624.991 172.261 625.147 173.649C625.31 175.04 625.103 176.537 624.525 178.14C623.952 179.731 623.154 181.023 622.132 182.018C621.116 183.016 619.959 183.672 618.661 183.987C617.369 184.304 616.022 184.233 614.617 183.773ZM615.383 181.648C616.45 181.997 617.425 182.014 618.308 181.698C619.192 181.382 619.958 180.837 620.606 180.063C621.255 179.289 621.765 178.388 622.135 177.359C622.506 176.33 622.686 175.317 622.676 174.32C622.665 173.323 622.414 172.438 621.923 171.665C621.432 170.892 620.653 170.331 619.587 169.982C618.52 169.633 617.544 169.62 616.658 169.943C615.772 170.265 615.003 170.817 614.352 171.598C613.701 172.378 613.191 173.283 612.82 174.312C612.449 175.341 612.27 176.35 612.283 177.341C612.296 178.331 612.549 179.209 613.043 179.975C613.536 180.742 614.317 181.3 615.383 181.648Z" fill="#717171"/>
<path d="M649.112 186.401L644.743 195.222L642.45 194.191L649.713 179.528L651.928 180.524L650.794 182.815L650.988 182.902C651.707 182.315 652.534 181.956 653.47 181.824C654.41 181.686 655.443 181.871 656.57 182.377C657.581 182.832 658.364 183.433 658.92 184.181C659.479 184.923 659.766 185.799 659.781 186.809C659.798 187.813 659.498 188.939 658.88 190.186L654.265 199.504L651.972 198.473L656.512 189.308C657.082 188.156 657.222 187.122 656.932 186.205C656.644 185.282 655.969 184.582 654.907 184.104C654.175 183.775 653.444 183.637 652.713 183.689C651.988 183.745 651.313 183.998 650.686 184.447C650.059 184.897 649.535 185.548 649.112 186.401Z" fill="#717171"/>
<path d="M692.367 205.944L690.072 205.34C690.153 204.952 690.171 204.538 690.124 204.1C690.087 203.659 689.931 203.222 689.653 202.788C689.376 202.354 688.921 201.952 688.29 201.583C687.426 201.077 686.581 200.849 685.754 200.899C684.938 200.947 684.339 201.267 683.958 201.858C683.619 202.383 683.548 202.913 683.744 203.447C683.94 203.981 684.389 204.593 685.091 205.284L686.864 207.013C687.934 208.051 688.58 209.059 688.802 210.036C689.029 211.007 688.832 211.973 688.212 212.934C687.704 213.722 687.016 214.29 686.15 214.638C685.29 214.989 684.331 215.102 683.273 214.975C682.214 214.849 681.137 214.464 680.04 213.822C678.599 212.978 677.604 211.976 677.053 210.814C676.502 209.653 676.478 208.413 676.981 207.097L679.364 207.801C679.082 208.656 679.095 209.428 679.402 210.118C679.715 210.811 680.315 211.418 681.204 211.938C682.215 212.53 683.153 212.792 684.017 212.722C684.891 212.65 685.518 212.319 685.9 211.728C686.208 211.25 686.294 210.75 686.159 210.227C686.027 209.698 685.658 209.144 685.051 208.567L683.044 206.651C681.944 205.595 681.292 204.577 681.09 203.595C680.897 202.61 681.107 201.644 681.719 200.695C682.22 199.919 682.886 199.363 683.719 199.029C684.557 198.697 685.475 198.59 686.473 198.705C687.477 198.825 688.475 199.175 689.468 199.756C690.866 200.575 691.77 201.516 692.182 202.579C692.6 203.646 692.661 204.768 692.367 205.944Z" fill="#717171"/>
<path d="M717.437 230.563L723.557 223.072L725.576 224.569L715.224 237.242L713.204 235.744L714.957 233.599L714.82 233.498C713.986 233.913 713.06 234.105 712.041 234.073C711.027 234.037 710.023 233.65 709.031 232.914C708.209 232.305 707.62 231.59 707.265 230.77C706.913 229.944 706.842 229.044 707.053 228.069C707.267 227.088 707.815 226.059 708.695 224.981L715.273 216.929L717.293 218.426L710.823 226.347C710.068 227.271 709.734 228.207 709.821 229.154C709.913 230.106 710.379 230.893 711.218 231.515C711.72 231.888 712.331 232.142 713.053 232.28C713.78 232.422 714.529 232.368 715.3 232.119C716.078 231.874 716.79 231.355 717.437 230.563Z" fill="#717171"/>
<path d="M754.658 241.14L739.07 256.406L737.227 254.697L752.814 239.431L754.658 241.14Z" fill="#717171"/>
<path d="M779.85 275.944L778.174 277.259L772.628 270.844L774.305 269.528L779.85 275.944ZM779.005 268.978L780.649 270.88L768.379 280.508C767.82 280.947 767.469 281.354 767.324 281.729C767.19 282.105 767.182 282.454 767.3 282.775C767.429 283.098 767.614 283.399 767.856 283.678C768.037 283.888 768.197 284.051 768.335 284.168C768.479 284.28 768.595 284.37 768.681 284.438L767.239 286.219C767.077 286.129 766.871 285.989 766.621 285.797C766.365 285.61 766.084 285.339 765.778 284.984C765.313 284.447 764.978 283.826 764.773 283.122C764.572 282.423 764.571 281.711 764.77 280.987C764.974 280.268 765.45 279.615 766.199 279.027L779.005 268.978Z" fill="#717171"/>
<path d="M784.551 310.373C783.965 309.518 783.599 308.639 783.452 307.735C783.312 306.828 783.418 305.973 783.77 305.168C784.128 304.361 784.759 303.675 785.663 303.112C786.459 302.617 787.209 302.367 787.912 302.364C788.621 302.357 789.292 302.52 789.925 302.854C790.558 303.187 791.155 303.618 791.715 304.146C792.286 304.677 792.828 305.23 793.342 305.804C794.013 306.556 794.55 307.171 794.954 307.646C795.368 308.124 795.724 308.437 796.023 308.585C796.327 308.739 796.65 308.709 796.994 308.495L797.066 308.45C797.959 307.895 798.489 307.226 798.659 306.443C798.832 305.667 798.591 304.802 797.936 303.847C797.257 302.857 796.502 302.22 795.67 301.935C794.839 301.65 794.091 301.552 793.428 301.638L792.802 299.22C793.887 299.046 794.866 299.105 795.738 299.398C796.62 299.693 797.393 300.131 798.058 300.712C798.733 301.295 799.303 301.926 799.769 302.605C800.066 303.039 800.354 303.571 800.631 304.2C800.918 304.832 801.079 305.513 801.115 306.243C801.155 306.979 800.967 307.727 800.551 308.488C800.134 309.248 799.375 309.972 798.271 310.659L789.118 316.356L787.697 314.283L789.578 313.112L789.505 313.006C789.108 313.053 788.624 313.02 788.056 312.906C787.487 312.792 786.895 312.537 786.281 312.143C785.666 311.748 785.09 311.158 784.551 310.373ZM786.686 309.496C787.248 310.316 787.888 310.904 788.605 311.26C789.326 311.622 790.047 311.783 790.769 311.743C791.494 311.71 792.146 311.513 792.725 311.152L794.679 309.936C794.51 309.916 794.278 309.785 793.983 309.542C793.697 309.302 793.389 309.009 793.058 308.664C792.736 308.321 792.427 307.982 792.13 307.649C791.842 307.318 791.607 307.051 791.425 306.847C790.983 306.353 790.52 305.923 790.036 305.555C789.562 305.19 789.066 304.964 788.55 304.876C788.044 304.79 787.519 304.915 786.977 305.253C786.235 305.715 785.857 306.33 785.843 307.1C785.838 307.872 786.119 308.67 786.686 309.496Z" fill="#717171"/>
<path d="M820.014 337.977L818.095 338.903L814.117 331.413L816.037 330.488L820.014 337.977ZM820.727 330.968L821.907 333.188L807.858 339.962C807.218 340.271 806.787 340.593 806.564 340.929C806.35 341.269 806.265 341.609 806.31 341.95C806.364 342.294 806.478 342.629 806.651 342.955C806.781 343.2 806.9 343.394 807.009 343.539C807.125 343.68 807.217 343.793 807.286 343.878L805.492 345.311C805.354 345.188 805.185 345.006 804.984 344.764C804.777 344.525 804.563 344.198 804.343 343.784C804.01 343.157 803.821 342.476 803.776 341.741C803.735 341.013 803.891 340.315 804.244 339.649C804.6 338.988 805.207 338.451 806.065 338.038L820.727 330.968Z" fill="#717171"/>
<path d="M816.121 370.159L831.533 364.661L832.452 367.001L817.04 372.499L816.121 370.159ZM834.569 364.934C834.39 364.478 834.393 364.029 834.577 363.586C834.764 363.15 835.078 362.853 835.52 362.696C835.961 362.538 836.403 362.565 836.845 362.777C837.289 362.995 837.601 363.333 837.78 363.789C837.959 364.245 837.955 364.691 837.768 365.127C837.584 365.57 837.271 365.87 836.829 366.027C836.388 366.185 835.945 366.154 835.5 365.936C835.059 365.724 834.748 365.39 834.569 364.934Z" fill="#717171"/>
<path d="M827.604 404.379C827.225 402.951 827.234 401.616 827.631 400.373C828.03 399.137 828.764 398.069 829.832 397.169C830.902 396.275 832.259 395.63 833.902 395.234C835.559 394.834 837.085 394.783 838.479 395.082C839.876 395.388 841.058 395.994 842.026 396.9C842.996 397.813 843.671 398.983 844.05 400.41C844.43 401.838 844.42 403.17 844.021 404.406C843.624 405.648 842.887 406.717 841.81 407.612C840.734 408.515 839.368 409.166 837.711 409.566C836.068 409.962 834.552 410.006 833.162 409.699C831.775 409.398 830.596 408.792 829.626 407.879C828.658 406.973 827.984 405.806 827.604 404.379ZM829.8 403.849C830.088 404.933 830.605 405.758 831.35 406.323C832.096 406.889 832.969 407.229 833.969 407.346C834.97 407.462 836.002 407.392 837.065 407.136C838.129 406.879 839.075 406.472 839.904 405.914C840.732 405.356 841.337 404.659 841.717 403.822C842.097 402.985 842.143 402.025 841.855 400.94C841.566 399.856 841.046 399.032 840.294 398.468C839.542 397.905 838.662 397.566 837.654 397.451C836.647 397.336 835.611 397.407 834.548 397.663C833.485 397.92 832.542 398.326 831.72 398.883C830.898 399.439 830.301 400.134 829.927 400.969C829.554 401.805 829.512 402.764 829.8 403.849Z" fill="#717171"/>
<path d="M843.451 433.259L833.692 434.548L833.33 432.06L849.552 429.917L849.902 432.321L847.367 432.656L847.398 432.866C848.277 433.137 849.023 433.626 849.635 434.333C850.255 435.039 850.653 436.004 850.831 437.227C850.991 438.323 850.905 439.312 850.574 440.194C850.25 441.075 849.668 441.804 848.826 442.381C847.991 442.956 846.884 443.336 845.503 443.518L835.195 444.88L834.833 442.392L844.972 441.052C846.247 440.884 847.192 440.422 847.807 439.668C848.429 438.912 848.656 437.958 848.488 436.806C848.372 436.011 848.097 435.324 847.661 434.744C847.226 434.171 846.651 433.749 845.937 433.479C845.223 433.208 844.394 433.134 843.451 433.259Z" fill="#717171"/>
<path d="M839.966 536.042C841.129 536.237 842.023 536.598 842.647 537.126C843.271 537.654 843.678 538.264 843.87 538.957C844.06 539.657 844.082 540.362 843.937 541.071C843.791 541.781 843.501 542.399 843.067 542.925C842.639 543.459 842.015 544.044 841.196 544.679C840.644 545.11 840.246 545.462 840.001 545.735C839.756 546.014 839.595 546.338 839.519 546.707C839.397 547.305 839.516 547.818 839.878 548.247C840.246 548.677 840.847 548.962 841.681 549.103L841.219 551.357C840.056 551.162 839.162 550.801 838.538 550.273C837.913 549.752 837.505 549.142 837.315 548.442C837.125 547.742 837.103 547.037 837.249 546.327C837.394 545.618 837.68 544.999 838.107 544.472C838.541 543.946 839.168 543.362 839.989 542.72C840.54 542.295 840.938 541.943 841.184 541.664C841.429 541.385 841.59 541.061 841.666 540.692C841.781 540.129 841.678 539.625 841.355 539.183C841.039 538.748 840.421 538.452 839.504 538.296L839.966 536.042Z" fill="#717171"/>
<path d="M795.43 635.429L796.865 633.061L811.83 650.428L810.417 652.761L787.148 649.096L788.584 646.727L808.055 650.004L808.143 649.858L795.43 635.429ZM802.367 640.412L796.581 649.961L794.528 648.831L800.313 639.282L802.367 640.412Z" fill="#717171"/>
<path d="M776.617 675.036L784.54 680.585L783.004 682.575L769.601 673.189L771.136 671.198L773.405 672.787L773.509 672.652C773.063 671.871 772.848 670.994 772.866 670.018C772.889 669.047 773.278 668.073 774.033 667.094C774.658 666.284 775.396 665.693 776.249 665.32C777.107 664.951 778.047 664.847 779.069 665.008C780.098 665.174 781.182 665.656 782.322 666.455L790.839 672.419L789.303 674.41L780.926 668.543C779.949 667.859 778.965 667.577 777.976 667.698C776.982 667.825 776.166 668.302 775.528 669.129C775.146 669.623 774.889 670.218 774.756 670.913C774.619 671.614 774.686 672.328 774.958 673.056C775.226 673.789 775.779 674.449 776.617 675.036Z" fill="#717171"/>
<path d="M758.294 710.375L756.692 708.97L762.584 702.872L764.186 704.277L758.294 710.375ZM765.416 708.639L763.669 710.447L751.944 700.163C751.41 699.695 750.938 699.417 750.528 699.331C750.118 699.255 749.754 699.295 749.437 699.45C749.119 699.615 748.832 699.83 748.576 700.096C748.383 700.295 748.236 700.468 748.134 700.614C748.037 700.766 747.96 700.886 747.902 700.977L745.849 699.856C745.919 699.691 746.036 699.478 746.2 699.216C746.359 698.949 746.601 698.648 746.927 698.31C747.421 697.8 748.019 697.4 748.722 697.111C749.421 696.827 750.16 696.73 750.941 696.821C751.717 696.916 752.463 697.278 753.178 697.905L765.416 708.639Z" fill="#717171"/>
<path d="M724.192 718.97C725.329 718.027 726.563 717.459 727.896 717.266C729.223 717.077 730.553 717.25 731.887 717.784C733.215 718.322 734.45 719.215 735.59 720.463C736.74 721.721 737.506 723.017 737.889 724.35C738.265 725.687 738.265 726.969 737.886 728.196C737.503 729.427 736.742 730.514 735.605 731.457C734.469 732.401 733.237 732.967 731.91 733.155C730.577 733.348 729.244 733.173 727.911 732.629C726.572 732.09 725.328 731.191 724.178 729.933C723.038 728.685 722.282 727.395 721.91 726.063C721.532 724.735 721.535 723.456 721.919 722.225C722.297 720.998 723.055 719.914 724.192 718.97ZM725.715 720.637C724.852 721.354 724.335 722.156 724.166 723.043C723.997 723.93 724.094 724.831 724.459 725.745C724.824 726.659 725.375 727.52 726.113 728.327C726.851 729.135 727.672 729.776 728.577 730.251C729.483 730.726 730.41 730.947 731.361 730.914C732.311 730.882 733.218 730.507 734.082 729.79C734.945 729.074 735.459 728.269 735.624 727.377C735.789 726.484 735.686 725.578 735.317 724.659C734.947 723.739 734.393 722.876 733.655 722.069C732.918 721.261 732.098 720.623 731.198 720.153C730.298 719.683 729.375 719.467 728.429 719.505C727.484 719.543 726.579 719.921 725.715 720.637Z" fill="#717171"/>
<path d="M702.625 736.088L712.254 749.319L710.227 750.658L708.723 748.59L708.545 748.708C708.775 749.602 708.714 750.454 708.365 751.263C708.019 752.078 707.402 752.779 706.513 753.367C705.612 753.962 704.718 754.259 703.831 754.258C702.943 754.267 702.072 754.03 701.221 753.547L701.078 753.641C701.226 754.555 701.097 755.444 700.69 756.308C700.287 757.178 699.597 757.935 698.619 758.581C697.399 759.388 696.131 759.677 694.815 759.449C693.504 759.227 692.282 758.338 691.15 756.782L684.706 747.926L686.803 746.541L693.247 755.396C693.958 756.372 694.741 756.888 695.597 756.943C696.454 756.998 697.255 756.779 698.002 756.286C698.962 755.651 699.501 754.879 699.618 753.967C699.74 753.062 699.49 752.181 698.867 751.326L692.599 742.712L694.732 741.302L701.327 750.364C701.874 751.117 702.567 751.556 703.405 751.683C704.247 751.815 705.065 751.619 705.859 751.094C706.404 750.734 706.812 750.257 707.081 749.662C707.344 749.071 707.439 748.43 707.366 747.739C707.291 747.057 707.018 746.392 706.545 745.743L700.528 737.474L702.625 736.088Z" fill="#717171"/>
<path d="M663.567 759.175C664.488 758.7 665.421 758.438 666.365 758.391C667.313 758.349 668.192 758.539 669.002 758.959C669.816 759.386 670.486 760.062 671.012 760.989C671.475 761.804 671.686 762.549 671.645 763.225C671.608 763.907 671.397 764.535 671.013 765.108C670.629 765.681 670.146 766.21 669.563 766.694C668.978 767.187 668.373 767.651 667.747 768.086C666.926 768.653 666.257 769.106 665.739 769.444C665.219 769.792 664.873 770.103 664.701 770.375C664.523 770.65 664.534 770.964 664.733 771.316L664.776 771.39C665.295 772.304 665.954 772.883 666.753 773.125C667.545 773.371 668.456 773.229 669.485 772.699C670.552 772.148 671.258 771.489 671.605 770.719C671.951 769.95 672.1 769.242 672.052 768.596L674.594 768.244C674.706 769.304 674.583 770.237 674.226 771.045C673.865 771.861 673.364 772.559 672.721 773.138C672.076 773.726 671.387 774.209 670.655 774.586C670.188 774.827 669.62 775.048 668.951 775.25C668.279 775.46 667.564 775.545 666.807 775.505C666.043 775.468 665.28 775.21 664.519 774.732C663.758 774.254 663.057 773.45 662.415 772.32L657.09 762.946L659.325 761.793L660.419 763.72L660.533 763.662C660.509 763.275 660.574 762.814 660.727 762.28C660.881 761.745 661.181 761.203 661.628 760.654C662.074 760.104 662.721 759.611 663.567 759.175ZM664.341 761.314C663.457 761.77 662.809 762.324 662.396 762.976C661.977 763.632 661.765 764.308 661.761 765.004C661.75 765.704 661.913 766.351 662.25 766.944L663.387 768.945C663.418 768.785 663.569 768.575 663.838 768.317C664.104 768.068 664.427 767.802 664.805 767.519C665.18 767.246 665.549 766.983 665.913 766.732C666.273 766.49 666.564 766.292 666.787 766.138C667.325 765.764 667.8 765.364 668.21 764.936C668.618 764.519 668.883 764.066 669.007 763.58C669.127 763.102 669.03 762.586 668.714 762.03C668.283 761.27 667.669 760.844 666.874 760.751C666.075 760.668 665.231 760.856 664.341 761.314Z" fill="#717171"/>
<path d="M632.307 791.459L631.471 789.499L639.38 786.439L640.216 788.399L632.307 791.459ZM639.448 792.897L637.103 793.805L630.987 779.457C630.709 778.804 630.404 778.351 630.072 778.099C629.737 777.855 629.394 777.737 629.042 777.744C628.686 777.76 628.335 777.835 627.991 777.968C627.733 778.068 627.526 778.163 627.372 778.253C627.22 778.35 627.099 778.427 627.008 778.485L625.645 776.592C625.779 776.472 625.976 776.327 626.236 776.158C626.493 775.983 626.84 775.81 627.277 775.641C627.939 775.385 628.648 775.274 629.404 775.309C630.153 775.346 630.859 775.572 631.521 775.985C632.177 776.401 632.691 777.047 633.064 777.922L639.448 792.897Z" fill="#717171"/>
<path d="M598.47 784.489L603.125 800.176L600.698 800.83L596.042 785.143L598.47 784.489ZM602.667 803.123C603.14 802.996 603.595 803.046 604.033 803.273C604.464 803.503 604.747 803.842 604.88 804.292C605.013 804.741 604.959 805.171 604.718 805.582C604.47 805.994 604.11 806.264 603.637 806.391C603.164 806.519 602.711 806.468 602.28 806.238C601.843 806.011 601.557 805.672 601.424 805.223C601.29 804.774 601.348 804.343 601.595 803.93C601.836 803.52 602.194 803.251 602.667 803.123Z" fill="#717171"/>
<path d="M561.755 792.666C563.214 792.434 564.554 792.577 565.777 793.094C566.992 793.613 568.018 794.446 568.853 795.593C569.681 796.741 570.241 798.148 570.533 799.813C570.827 801.492 570.779 803.006 570.388 804.355C569.99 805.705 569.304 806.814 568.331 807.68C567.351 808.548 566.132 809.098 564.673 809.33C563.214 809.562 561.877 809.418 560.661 808.9C559.439 808.382 558.413 807.546 557.583 806.391C556.747 805.237 556.181 803.82 555.887 802.141C555.596 800.476 555.65 798.972 556.049 797.629C556.441 796.286 557.127 795.181 558.107 794.314C559.08 793.447 560.296 792.898 561.755 792.666ZM562.144 794.891C561.036 795.067 560.174 795.495 559.558 796.175C558.941 796.856 558.542 797.685 558.36 798.663C558.178 799.641 558.182 800.669 558.37 801.746C558.559 802.824 558.907 803.8 559.413 804.676C559.92 805.552 560.581 806.22 561.397 806.68C562.213 807.14 563.175 807.281 564.283 807.105C565.392 806.929 566.253 806.497 566.868 805.81C567.483 805.122 567.881 804.286 568.062 803.301C568.243 802.316 568.239 801.285 568.05 800.207C567.861 799.13 567.514 798.157 567.009 797.288C566.503 796.419 565.843 795.758 565.029 795.306C564.214 794.853 563.252 794.714 562.144 794.891Z" fill="#717171"/>
<path d="M530.046 806.245L529.477 796.418L531.988 796.286L532.934 812.622L530.508 812.75L530.361 810.197L530.148 810.208C529.813 811.058 529.27 811.755 528.519 812.299C527.768 812.851 526.776 813.159 525.542 813.224C524.435 813.282 523.454 813.106 522.598 812.696C521.742 812.293 521.057 811.646 520.543 810.756C520.03 809.872 519.733 808.736 519.652 807.346L519.051 796.966L521.562 796.834L522.153 807.044C522.228 808.327 522.619 809.31 523.327 809.991C524.036 810.679 524.971 810.992 526.135 810.931C526.936 810.889 527.642 810.678 528.253 810.297C528.857 809.917 529.321 809.384 529.644 808.699C529.967 808.013 530.101 807.195 530.046 806.245Z" fill="#717171"/>
</svg>
