<svg width="151" height="51" viewBox="0 0 151 51" fill="none" xmlns="http://www.w3.org/2000/svg">
<path d="M146.488 41.5647C144.495 41.5647 142.879 39.9489 142.879 37.9557V37.1715C142.879 35.1783 144.495 33.5625 146.488 33.5625C148.481 33.5625 150.097 35.1783 150.097 37.1715V37.9557C150.097 39.9489 148.481 41.5647 146.488 41.5647Z" fill="#C1FF72"/>
<path d="M12.787 41.57C10.7857 41.57 8.98067 41.2217 7.372 40.525C5.776 39.8283 4.45867 38.834 3.42 37.542C2.394 36.2373 1.74167 34.692 1.463 32.906L6.213 32.184C6.61833 33.8053 7.448 35.0593 8.702 35.946C9.96867 36.8327 11.4253 37.276 13.072 37.276C14.0473 37.276 14.9657 37.124 15.827 36.82C16.6883 36.516 17.385 36.0727 17.917 35.49C18.4617 34.9073 18.734 34.1917 18.734 33.343C18.734 32.963 18.6707 32.6147 18.544 32.298C18.4173 31.9687 18.2273 31.6773 17.974 31.424C17.7333 31.1707 17.4167 30.9427 17.024 30.74C16.644 30.5247 16.2007 30.341 15.694 30.189L8.626 28.099C8.018 27.9217 7.35933 27.6873 6.65 27.396C5.95333 27.092 5.28833 26.6803 4.655 26.161C4.03433 25.629 3.52133 24.9577 3.116 24.147C2.72333 23.3237 2.527 22.3103 2.527 21.107C2.527 19.3463 2.97033 17.8707 3.857 16.68C4.75633 15.4767 5.95967 14.5773 7.467 13.982C8.987 13.3867 10.6717 13.0953 12.521 13.108C14.3957 13.1207 16.0677 13.4437 17.537 14.077C19.0063 14.6977 20.235 15.6033 21.223 16.794C22.211 17.9847 22.9077 19.4223 23.313 21.107L18.392 21.962C18.1893 20.9993 17.7967 20.1823 17.214 19.511C16.644 18.827 15.941 18.3077 15.105 17.953C14.2817 17.5983 13.4013 17.4083 12.464 17.383C11.552 17.3703 10.7033 17.5097 9.918 17.801C9.14533 18.0797 8.51833 18.485 8.037 19.017C7.56833 19.549 7.334 20.1697 7.334 20.879C7.334 21.5503 7.53667 22.1013 7.942 22.532C8.34733 22.95 8.84767 23.2857 9.443 23.539C10.051 23.7797 10.6653 23.9823 11.286 24.147L16.188 25.515C16.8593 25.6923 17.613 25.933 18.449 26.237C19.285 26.541 20.0893 26.9653 20.862 27.51C21.6347 28.0547 22.268 28.7703 22.762 29.657C23.2687 30.5437 23.522 31.671 23.522 33.039C23.522 34.4577 23.2243 35.7053 22.629 36.782C22.0463 37.846 21.2547 38.7327 20.254 39.442C19.2533 40.1513 18.107 40.6833 16.815 41.038C15.5357 41.3927 14.193 41.57 12.787 41.57ZM33.3726 41.57C31.8906 41.57 30.6366 41.2913 29.6106 40.734C28.5846 40.164 27.8056 39.4103 27.2736 38.473C26.7543 37.5357 26.4946 36.5033 26.4946 35.376C26.4946 34.388 26.6593 33.5013 26.9886 32.716C27.3179 31.918 27.8246 31.234 28.5086 30.664C29.1926 30.0813 30.0793 29.6063 31.1686 29.239C31.9919 28.973 32.9546 28.7323 34.0566 28.517C35.1713 28.3017 36.3746 28.1053 37.6666 27.928C38.9713 27.738 40.3329 27.5353 41.7516 27.32L40.1176 28.251C40.1303 26.8323 39.8136 25.7873 39.1676 25.116C38.5216 24.4447 37.4323 24.109 35.8996 24.109C34.9749 24.109 34.0819 24.3243 33.2206 24.755C32.3593 25.1857 31.7576 25.9267 31.4156 26.978L27.2356 25.667C27.7423 23.9317 28.7049 22.5383 30.1236 21.487C31.5549 20.4357 33.4803 19.91 35.8996 19.91C37.7236 19.91 39.3259 20.2077 40.7066 20.803C42.0999 21.3983 43.1323 22.3737 43.8036 23.729C44.1709 24.451 44.3926 25.192 44.4686 25.952C44.5446 26.6993 44.5826 27.5163 44.5826 28.403V41H40.5736V36.554L41.2386 37.276C40.3139 38.758 39.2309 39.8473 37.9896 40.544C36.7609 41.228 35.2219 41.57 33.3726 41.57ZM34.2846 37.922C35.3233 37.922 36.2099 37.7383 36.9446 37.371C37.6793 37.0037 38.2619 36.554 38.6926 36.022C39.1359 35.49 39.4336 34.9897 39.5856 34.521C39.8263 33.9383 39.9593 33.2733 39.9846 32.526C40.0226 31.766 40.0416 31.1517 40.0416 30.683L41.4476 31.101C40.0669 31.3163 38.8826 31.5063 37.8946 31.671C36.9066 31.8357 36.0579 31.994 35.3486 32.146C34.6393 32.2853 34.0123 32.4437 33.4676 32.621C32.9356 32.811 32.4859 33.0327 32.1186 33.286C31.7513 33.5393 31.4663 33.8307 31.2636 34.16C31.0736 34.4893 30.9786 34.8757 30.9786 35.319C30.9786 35.8257 31.1053 36.2753 31.3586 36.668C31.6119 37.048 31.9793 37.352 32.4606 37.58C32.9546 37.808 33.5626 37.922 34.2846 37.922ZM46.4891 50.12V45.826H47.4581C48.5728 45.826 49.3645 45.5663 49.8331 45.047C50.3018 44.5277 50.5361 43.7613 50.5361 42.748V20.48H55.0961V44.8C55.0961 46.4593 54.6085 47.7577 53.6331 48.695C52.6705 49.645 51.3278 50.12 49.6051 50.12H46.4891ZM50.5361 17.364V13.165H55.0961V17.364H50.5361ZM66.2144 41.57C64.7324 41.57 63.4784 41.2913 62.4524 40.734C61.4264 40.164 60.6474 39.4103 60.1154 38.473C59.5961 37.5357 59.3364 36.5033 59.3364 35.376C59.3364 34.388 59.5011 33.5013 59.8304 32.716C60.1597 31.918 60.6664 31.234 61.3504 30.664C62.0344 30.0813 62.9211 29.6063 64.0104 29.239C64.8337 28.973 65.7964 28.7323 66.8984 28.517C68.0131 28.3017 69.2164 28.1053 70.5084 27.928C71.8131 27.738 73.1747 27.5353 74.5934 27.32L72.9594 28.251C72.9721 26.8323 72.6554 25.7873 72.0094 25.116C71.3634 24.4447 70.2741 24.109 68.7414 24.109C67.8167 24.109 66.9237 24.3243 66.0624 24.755C65.2011 25.1857 64.5994 25.9267 64.2574 26.978L60.0774 25.667C60.5841 23.9317 61.5467 22.5383 62.9654 21.487C64.3967 20.4357 66.3221 19.91 68.7414 19.91C70.5654 19.91 72.1677 20.2077 73.5484 20.803C74.9417 21.3983 75.9741 22.3737 76.6454 23.729C77.0127 24.451 77.2344 25.192 77.3104 25.952C77.3864 26.6993 77.4244 27.5163 77.4244 28.403V41H73.4154V36.554L74.0804 37.276C73.1557 38.758 72.0727 39.8473 70.8314 40.544C69.6027 41.228 68.0637 41.57 66.2144 41.57ZM67.1264 37.922C68.1651 37.922 69.0517 37.7383 69.7864 37.371C70.5211 37.0037 71.1037 36.554 71.5344 36.022C71.9777 35.49 72.2754 34.9897 72.4274 34.521C72.6681 33.9383 72.8011 33.2733 72.8264 32.526C72.8644 31.766 72.8834 31.1517 72.8834 30.683L74.2894 31.101C72.9087 31.3163 71.7244 31.5063 70.7364 31.671C69.7484 31.8357 68.8997 31.994 68.1904 32.146C67.4811 32.2853 66.8541 32.4437 66.3094 32.621C65.7774 32.811 65.3277 33.0327 64.9604 33.286C64.5931 33.5393 64.3081 33.8307 64.1054 34.16C63.9154 34.4893 63.8204 34.8757 63.8204 35.319C63.8204 35.8257 63.9471 36.2753 64.2004 36.668C64.4537 37.048 64.8211 37.352 65.3024 37.58C65.7964 37.808 66.4044 37.922 67.1264 37.922ZM88.1089 41.57C86.6269 41.57 85.3729 41.2913 84.3469 40.734C83.3209 40.164 82.5419 39.4103 82.0099 38.473C81.4906 37.5357 81.2309 36.5033 81.2309 35.376C81.2309 34.388 81.3956 33.5013 81.7249 32.716C82.0543 31.918 82.5609 31.234 83.2449 30.664C83.9289 30.0813 84.8156 29.6063 85.9049 29.239C86.7283 28.973 87.6909 28.7323 88.7929 28.517C89.9076 28.3017 91.1109 28.1053 92.4029 27.928C93.7076 27.738 95.0693 27.5353 96.4879 27.32L94.8539 28.251C94.8666 26.8323 94.5499 25.7873 93.9039 25.116C93.2579 24.4447 92.1686 24.109 90.6359 24.109C89.7113 24.109 88.8183 24.3243 87.9569 24.755C87.0956 25.1857 86.4939 25.9267 86.1519 26.978L81.9719 25.667C82.4786 23.9317 83.4413 22.5383 84.8599 21.487C86.2913 20.4357 88.2166 19.91 90.6359 19.91C92.4599 19.91 94.0623 20.2077 95.4429 20.803C96.8363 21.3983 97.8686 22.3737 98.5399 23.729C98.9073 24.451 99.1289 25.192 99.2049 25.952C99.2809 26.6993 99.3189 27.5163 99.3189 28.403V41H95.3099V36.554L95.9749 37.276C95.0503 38.758 93.9673 39.8473 92.7259 40.544C91.4973 41.228 89.9583 41.57 88.1089 41.57ZM89.0209 37.922C90.0596 37.922 90.9463 37.7383 91.6809 37.371C92.4156 37.0037 92.9983 36.554 93.4289 36.022C93.8723 35.49 94.1699 34.9897 94.3219 34.521C94.5626 33.9383 94.6956 33.2733 94.7209 32.526C94.7589 31.766 94.7779 31.1517 94.7779 30.683L96.1839 31.101C94.8033 31.3163 93.6189 31.5063 92.6309 31.671C91.6429 31.8357 90.7943 31.994 90.0849 32.146C89.3756 32.2853 88.7486 32.4437 88.2039 32.621C87.6719 32.811 87.2223 33.0327 86.8549 33.286C86.4876 33.5393 86.2026 33.8307 85.9999 34.16C85.8099 34.4893 85.7149 34.8757 85.7149 35.319C85.7149 35.8257 85.8416 36.2753 86.0949 36.668C86.3483 37.048 86.7156 37.352 87.1969 37.58C87.6909 37.808 88.2989 37.922 89.0209 37.922ZM116.292 41C114.937 41.2533 113.607 41.361 112.302 41.323C111.01 41.2977 109.851 41.0633 108.825 40.62C107.799 40.164 107.02 39.4483 106.488 38.473C106.02 37.5863 105.773 36.6807 105.747 35.756C105.722 34.8313 105.709 33.7863 105.709 32.621V14.78H110.269V32.355C110.269 33.1783 110.276 33.9003 110.288 34.521C110.314 35.1417 110.447 35.6483 110.687 36.041C111.143 36.801 111.872 37.2253 112.872 37.314C113.873 37.4027 115.013 37.352 116.292 37.162V41ZM101.985 24.071V20.48H116.292V24.071H101.985ZM134.898 41V31.12C134.898 30.474 134.854 29.7583 134.765 28.973C134.676 28.1877 134.467 27.434 134.138 26.712C133.821 25.9773 133.34 25.3757 132.694 24.907C132.061 24.4383 131.199 24.204 130.11 24.204C129.527 24.204 128.951 24.299 128.381 24.489C127.811 24.679 127.292 25.0083 126.823 25.477C126.367 25.933 126 26.5663 125.721 27.377C125.442 28.175 125.303 29.201 125.303 30.455L122.586 29.296C122.586 27.548 122.922 25.9647 123.593 24.546C124.277 23.1273 125.278 22 126.595 21.164C127.912 20.3153 129.534 19.891 131.459 19.891C132.979 19.891 134.233 20.1443 135.221 20.651C136.209 21.1577 136.994 21.8037 137.577 22.589C138.16 23.3743 138.59 24.2103 138.869 25.097C139.148 25.9837 139.325 26.826 139.401 27.624C139.49 28.4093 139.534 29.049 139.534 29.543V41H134.898ZM120.667 41V13.64H124.752V28.042H125.303V41H120.667Z" fill="white"/>
</svg>
