<svg width="110" height="38" viewBox="0 0 110 38" fill="none" xmlns="http://www.w3.org/2000/svg">
<path d="M103 30.0969V24H109.097V30.0969H103Z" fill="#C1FF72"/>
<path d="M9.1 29.692C10.0333 29.692 10.8547 29.44 11.564 28.936C12.292 28.432 12.656 27.676 12.656 26.668C12.656 25.6413 12.264 24.8573 11.48 24.316C10.7147 23.7747 9.61333 23.308 8.176 22.916C6.75733 22.5053 5.72133 22.1507 5.068 21.852C4.43333 21.5533 3.82667 21.1613 3.248 20.676C2.09067 19.7053 1.512 18.2027 1.512 16.168C1.512 14.5067 2.1 13.0787 3.276 11.884C4.47067 10.6893 6.09467 10.092 8.148 10.092C9.13733 10.092 10.164 10.2413 11.228 10.54C12.3107 10.82 12.9827 10.96 13.244 10.96C13.5053 10.96 13.7387 10.7733 13.944 10.4H14.252L14.448 16.056H14C13.104 14.432 12.1613 13.1347 11.172 12.164C10.2013 11.1747 9.13733 10.68 7.98 10.68C6.84133 10.68 5.95467 10.9507 5.32 11.492C4.68533 12.0147 4.368 12.724 4.368 13.62C4.368 14.4973 4.74133 15.1787 5.488 15.664C6.25333 16.1307 7.18667 16.5133 8.288 16.812C9.38933 17.1107 10.108 17.316 10.444 17.428C10.7987 17.54 11.228 17.6987 11.732 17.904C12.2547 18.0907 12.6747 18.296 12.992 18.52C13.328 18.7253 13.6733 18.996 14.028 19.332C14.4013 19.6493 14.6907 20.004 14.896 20.396C15.4 21.292 15.652 22.356 15.652 23.588C15.652 25.604 15.0173 27.228 13.748 28.46C12.4973 29.6733 10.8453 30.28 8.792 30.28C7.728 30.28 6.50533 30.14 5.124 29.86C3.76133 29.58 3.00533 29.44 2.856 29.44C2.59467 29.44 2.34267 29.72 2.1 30.28H1.708L1.428 23.616H1.904C2.72533 25.24 3.77067 26.6587 5.04 27.872C6.328 29.0853 7.68133 29.692 9.1 29.692ZM23.7891 23.42H24.6011V21.264C24.6011 19.4907 24.4984 18.3053 24.2931 17.708C24.1064 17.092 23.7331 16.784 23.1731 16.784C22.8371 16.784 22.5291 16.8773 22.2491 17.064C21.9877 17.232 21.8571 17.4747 21.8571 17.792C21.8571 18.0907 21.9131 18.3987 22.0251 18.716H22.7251C22.8744 19.108 22.9491 19.584 22.9491 20.144C22.9491 20.6853 22.7157 21.1613 22.2491 21.572C21.7824 21.964 21.1944 22.16 20.4851 22.16C18.8797 22.16 18.0771 21.3853 18.0771 19.836C18.0771 17.54 20.0277 16.392 23.9291 16.392C26.1504 16.392 27.6811 16.7747 28.5211 17.54C29.3797 18.2867 29.8091 19.668 29.8091 21.684V27.368C29.8091 28.3387 30.0797 28.824 30.6211 28.824C31.2557 28.824 31.6291 27.8627 31.7411 25.94L32.1611 25.968C32.0864 27.6107 31.7784 28.74 31.2371 29.356C30.6957 29.972 29.8091 30.28 28.5771 30.28C26.3371 30.28 25.0491 29.5893 24.7131 28.208C24.4704 28.9173 24.1064 29.44 23.6211 29.776C23.1357 30.112 22.4264 30.28 21.4931 30.28C18.7304 30.28 17.3491 29.1507 17.3491 26.892C17.3491 25.5667 17.8717 24.6613 18.9171 24.176C19.9811 23.672 21.6051 23.42 23.7891 23.42ZM22.6691 26.864C22.6691 27.8347 22.7157 28.46 22.8091 28.74C22.9211 29.02 23.1171 29.16 23.3971 29.16C23.6957 29.16 23.9664 28.9267 24.2091 28.46C24.4704 27.9747 24.6011 27.312 24.6011 26.472V23.868H24.4051C23.2477 23.868 22.6691 24.7173 22.6691 26.416V26.864ZM39.1843 16.672V27.592C39.1843 30.6533 38.6523 32.9867 37.5883 34.592C36.5429 36.1973 34.8256 37 32.4363 37C30.8869 37 29.7576 36.692 29.0482 36.076C28.3202 35.46 27.9562 34.7413 27.9562 33.92C27.9562 33.0987 28.1989 32.464 28.6842 32.016C29.1696 31.5867 29.7762 31.372 30.5042 31.372C31.2322 31.372 31.7829 31.568 32.1562 31.96C32.5109 32.3707 32.6883 32.8187 32.6883 33.304C32.6883 33.7893 32.6323 34.256 32.5203 34.704H31.4562C31.1576 35.208 31.1202 35.6373 31.3442 35.992C31.5496 36.3467 31.9322 36.524 32.4923 36.524C33.0709 36.524 33.4629 36.1973 33.6683 35.544C33.8736 34.9093 33.9763 33.584 33.9763 31.568V17.176H32.1562V16.672H39.1843ZM36.5243 14.74C35.5349 14.74 34.8256 14.488 34.3963 13.984C33.9856 13.48 33.7803 12.8547 33.7803 12.108C33.7803 11.3613 34.0043 10.7453 34.4523 10.26C34.9189 9.77467 35.6189 9.532 36.5523 9.532C37.4856 9.532 38.1949 9.756 38.6803 10.204C39.1656 10.6333 39.4083 11.2587 39.4083 12.08C39.4083 12.8827 39.1749 13.5267 38.7083 14.012C38.2416 14.4973 37.5136 14.74 36.5243 14.74ZM47.8516 23.42H48.6636V21.264C48.6636 19.4907 48.5609 18.3053 48.3556 17.708C48.1689 17.092 47.7956 16.784 47.2356 16.784C46.8996 16.784 46.5916 16.8773 46.3116 17.064C46.0502 17.232 45.9196 17.4747 45.9196 17.792C45.9196 18.0907 45.9756 18.3987 46.0876 18.716H46.7876C46.9369 19.108 47.0116 19.584 47.0116 20.144C47.0116 20.6853 46.7782 21.1613 46.3116 21.572C45.8449 21.964 45.2569 22.16 44.5476 22.16C42.9422 22.16 42.1396 21.3853 42.1396 19.836C42.1396 17.54 44.0902 16.392 47.9916 16.392C50.2129 16.392 51.7436 16.7747 52.5836 17.54C53.4422 18.2867 53.8716 19.668 53.8716 21.684V27.368C53.8716 28.3387 54.1422 28.824 54.6836 28.824C55.3182 28.824 55.6916 27.8627 55.8036 25.94L56.2236 25.968C56.1489 27.6107 55.8409 28.74 55.2996 29.356C54.7582 29.972 53.8716 30.28 52.6396 30.28C50.3996 30.28 49.1116 29.5893 48.7756 28.208C48.5329 28.9173 48.1689 29.44 47.6836 29.776C47.1982 30.112 46.4889 30.28 45.5556 30.28C42.7929 30.28 41.4116 29.1507 41.4116 26.892C41.4116 25.5667 41.9342 24.6613 42.9796 24.176C44.0436 23.672 45.6676 23.42 47.8516 23.42ZM46.7316 26.864C46.7316 27.8347 46.7782 28.46 46.8716 28.74C46.9836 29.02 47.1796 29.16 47.4596 29.16C47.7582 29.16 48.0289 28.9267 48.2716 28.46C48.5329 27.9747 48.6636 27.312 48.6636 26.472V23.868H48.4676C47.3102 23.868 46.7316 24.7173 46.7316 26.416V26.864ZM63.2188 23.42H64.0308V21.264C64.0308 19.4907 63.9281 18.3053 63.7228 17.708C63.5361 17.092 63.1628 16.784 62.6028 16.784C62.2668 16.784 61.9588 16.8773 61.6788 17.064C61.4174 17.232 61.2868 17.4747 61.2868 17.792C61.2868 18.0907 61.3428 18.3987 61.4548 18.716H62.1548C62.3041 19.108 62.3788 19.584 62.3788 20.144C62.3788 20.6853 62.1454 21.1613 61.6788 21.572C61.2121 21.964 60.6241 22.16 59.9147 22.16C58.3094 22.16 57.5068 21.3853 57.5068 19.836C57.5068 17.54 59.4574 16.392 63.3588 16.392C65.5801 16.392 67.1108 16.7747 67.9508 17.54C68.8094 18.2867 69.2388 19.668 69.2388 21.684V27.368C69.2388 28.3387 69.5094 28.824 70.0508 28.824C70.6854 28.824 71.0588 27.8627 71.1708 25.94L71.5908 25.968C71.5161 27.6107 71.2081 28.74 70.6668 29.356C70.1254 29.972 69.2388 30.28 68.0068 30.28C65.7668 30.28 64.4788 29.5893 64.1428 28.208C63.9001 28.9173 63.5361 29.44 63.0508 29.776C62.5654 30.112 61.8561 30.28 60.9228 30.28C58.1601 30.28 56.7788 29.1507 56.7788 26.892C56.7788 25.5667 57.3014 24.6613 58.3468 24.176C59.4108 23.672 61.0348 23.42 63.2188 23.42ZM62.0988 26.864C62.0988 27.8347 62.1454 28.46 62.2388 28.74C62.3508 29.02 62.5468 29.16 62.8268 29.16C63.1254 29.16 63.3961 28.9267 63.6388 28.46C63.9001 27.9747 64.0308 27.312 64.0308 26.472V23.868H63.8348C62.6774 23.868 62.0988 24.7173 62.0988 26.416V26.864ZM72.8558 25.996V17.176H71.3158V16.672H72.8558V13.06L78.0638 11.772V16.672H81.7038V17.176H78.0638V26.612C78.0638 27.4893 78.1478 28.1333 78.3158 28.544C78.5024 28.9547 78.8758 29.16 79.4358 29.16C79.9958 29.16 80.4811 28.88 80.8918 28.32C81.3211 27.76 81.6011 26.9947 81.7318 26.024L82.2078 26.08C82.0584 27.368 81.6478 28.3947 80.9758 29.16C80.3038 29.9067 79.1931 30.28 77.6438 30.28C76.0944 30.28 74.9091 29.972 74.0878 29.356C73.2664 28.74 72.8558 27.62 72.8558 25.996ZM82.4753 9H89.2233V19.248C89.522 18.3893 89.9793 17.6987 90.5953 17.176C91.2113 16.6533 92.1446 16.392 93.3953 16.392C96.2886 16.392 97.7353 17.9507 97.7353 21.068V29.496H99.3033V30H91.3793V29.496H92.5273V20.396C92.5273 19.276 92.4526 18.5573 92.3033 18.24C92.154 17.904 91.8833 17.736 91.4913 17.736C90.894 17.736 90.362 18.128 89.8953 18.912C89.4473 19.696 89.2233 20.648 89.2233 21.768V29.496H90.4273V30H82.4753V29.496H84.0153V9.504H82.4753V9Z" fill="white"/>
</svg>
